<svg width="37" height="37" viewBox="0 0 37 37" fill="none" xmlns="http://www.w3.org/2000/svg">
<path d="M9.01869 34.0053L9.0151 27.5553C7.58937 26.2561 6.48227 24.738 5.6938 23.0009C4.90533 21.2638 4.51056 19.4328 4.50949 17.5078C4.50739 13.7578 5.81812 10.5696 8.44165 7.94311C11.0652 5.31665 14.252 4.00237 18.002 4.00028C21.127 3.99853 23.8962 4.91574 26.3097 6.75189C28.7233 8.58805 30.2934 10.9809 31.02 13.9305L32.9743 21.6169C33.0996 22.0919 33.0123 22.5232 32.7125 22.9108C32.4127 23.2985 32.0128 23.4925 31.5128 23.4927L28.5128 23.4944L28.5153 27.9944C28.5158 28.8194 28.2225 29.5258 27.6353 30.1137C27.0481 30.7015 26.342 30.9956 25.517 30.9961L22.517 30.9978L22.5187 33.9978L19.5187 33.9994L19.5153 27.9994L25.5153 27.9961L25.5112 20.4961L29.5612 20.4938L28.1329 14.6821C27.5566 12.4074 26.3306 10.5581 24.4548 9.13418C22.579 7.71023 20.4286 6.99893 18.0036 7.00028C15.1036 7.0019 12.6292 8.01578 10.5803 10.0419C8.53145 12.0681 7.50783 14.5311 7.50945 17.4311C7.51028 18.9311 7.81733 20.356 8.43058 21.7056C9.04383 23.0553 9.91325 24.2548 11.0388 25.3042L12.0143 26.2036L12.0187 34.0036L9.01869 34.0053ZM18.0137 25.0003C18.4387 25 18.7948 24.8561 19.0822 24.5684C19.3695 24.2808 19.5131 23.9244 19.5128 23.4994C19.5126 23.0744 19.3686 22.7183 19.081 22.4309C18.7933 22.1436 18.437 22 18.012 22.0003C17.587 22.0005 17.2308 22.1445 16.9435 22.4321C16.6561 22.7198 16.5126 23.0761 16.5128 23.5011C16.5131 23.9261 16.657 24.2823 16.9447 24.5696C17.2323 24.857 17.5887 25.0005 18.0137 25.0003ZM16.886 20.2009L19.1735 20.1996C19.1731 19.5746 19.2541 19.0683 19.4164 18.6807C19.5787 18.2932 19.9097 17.8242 20.4094 17.2739C20.8591 16.7737 21.2963 16.2672 21.721 15.7545C22.1457 15.2417 22.3579 14.5729 22.3574 13.7479C22.3568 12.6979 21.9501 11.8106 21.1372 11.086C20.3243 10.3615 19.3178 9.99955 18.1178 10.0002C17.1178 10.0008 16.2117 10.2888 15.3995 10.8642C14.5874 11.4397 14.019 12.19 13.6945 13.1152L15.7575 13.9765C15.9322 13.4264 16.2382 12.9825 16.6755 12.6448C17.1128 12.307 17.594 12.138 18.119 12.1377C18.669 12.1374 19.1253 12.2872 19.488 12.587C19.8507 12.8867 20.0321 13.2741 20.0324 13.7491C20.0327 14.2741 19.8767 14.743 19.5644 15.1557C19.2522 15.5683 18.8836 15.9873 18.4589 16.4125C17.9592 16.9378 17.572 17.463 17.2973 17.9882C17.0226 18.5133 16.8855 19.2509 16.886 20.2009Z" fill="#DE0000"/>
</svg>
