<svg width="36" height="36" viewBox="0 0 36 36" fill="none" xmlns="http://www.w3.org/2000/svg">
<path d="M18 33.002C15.925 33.002 13.975 32.6082 12.15 31.8207C10.325 31.0332 8.7375 29.9645 7.3875 28.6145C6.0375 27.2645 4.96875 25.677 4.18125 23.852C3.39375 22.027 3 20.077 3 18.002C3 15.927 3.39375 13.977 4.18125 12.152C4.96875 10.327 6.0375 8.73945 7.3875 7.38945C8.7375 6.03945 10.325 4.9707 12.15 4.1832C13.975 3.3957 15.925 3.00195 18 3.00195C20.2 3.00195 22.2812 3.45195 24.2438 4.35195C26.2063 5.25195 27.9 6.52695 29.325 8.17695L18 19.502V6.00195C14.65 6.00195 11.8125 7.16445 9.4875 9.48945C7.1625 11.8145 6 14.652 6 18.002C6 21.352 7.1625 24.1895 9.4875 26.5145C11.8125 28.8395 14.65 30.002 18 30.002C19.725 30.002 21.375 29.6457 22.95 28.9332C24.525 28.2207 25.875 27.202 27 25.877V30.002C25.675 30.952 24.25 31.6895 22.725 32.2145C21.2 32.7395 19.625 33.002 18 33.002ZM30 27.002V15.002H33V27.002H30ZM31.5 33.002C31.075 33.002 30.7188 32.8582 30.4313 32.5707C30.1438 32.2832 30 31.927 30 31.502C30 31.077 30.1438 30.7207 30.4313 30.4332C30.7188 30.1457 31.075 30.002 31.5 30.002C31.925 30.002 32.2813 30.1457 32.5688 30.4332C32.8563 30.7207 33 31.077 33 31.502C33 31.927 32.8563 32.2832 32.5688 32.5707C32.2813 32.8582 31.925 33.002 31.5 33.002Z" fill="#DE0000"/>
</svg>
