<svg width="32" height="32" viewBox="0 0 32 32" fill="none" xmlns="http://www.w3.org/2000/svg">
<path d="M6.66602 29.3337C5.5549 29.3337 4.61046 28.9448 3.83268 28.167C3.0549 27.3892 2.66602 26.4448 2.66602 25.3337C2.66602 24.467 2.91602 23.6948 3.41602 23.017C3.91602 22.3392 4.5549 21.8559 5.33268 21.567V10.4337C4.5549 10.1448 3.91602 9.66144 3.41602 8.98366C2.91602 8.30588 2.66602 7.53366 2.66602 6.66699C2.66602 5.55588 3.0549 4.61144 3.83268 3.83366C4.61046 3.05588 5.5549 2.66699 6.66602 2.66699C7.53268 2.66699 8.3049 2.91699 8.98268 3.41699C9.66046 3.91699 10.1438 4.55588 10.4327 5.33366H21.566C21.8327 4.55588 22.3049 3.91699 22.9827 3.41699C23.6605 2.91699 24.4438 2.66699 25.3327 2.66699C26.4438 2.66699 27.3882 3.05588 28.166 3.83366C28.9438 4.61144 29.3327 5.55588 29.3327 6.66699C29.3327 7.55588 29.0827 8.33921 28.5827 9.01699C28.0827 9.69477 27.4438 10.167 26.666 10.4337V21.567C27.4438 21.8559 28.0827 22.3392 28.5827 23.017C29.0827 23.6948 29.3327 24.467 29.3327 25.3337C29.3327 26.4448 28.9438 27.3892 28.166 28.167C27.3882 28.9448 26.4438 29.3337 25.3327 29.3337C24.466 29.3337 23.6938 29.0837 23.016 28.5837C22.3382 28.0837 21.8549 27.4448 21.566 26.667H10.4327C10.1438 27.4448 9.66046 28.0837 8.98268 28.5837C8.3049 29.0837 7.53268 29.3337 6.66602 29.3337ZM6.66602 8.00033C7.04379 8.00033 7.36046 7.87255 7.61602 7.61699C7.87157 7.36144 7.99935 7.04477 7.99935 6.66699C7.99935 6.28921 7.87157 5.97255 7.61602 5.71699C7.36046 5.46144 7.04379 5.33366 6.66602 5.33366C6.28824 5.33366 5.97157 5.46144 5.71602 5.71699C5.46046 5.97255 5.33268 6.28921 5.33268 6.66699C5.33268 7.04477 5.46046 7.36144 5.71602 7.61699C5.97157 7.87255 6.28824 8.00033 6.66602 8.00033ZM25.3327 8.00033C25.7105 8.00033 26.0271 7.87255 26.2827 7.61699C26.5382 7.36144 26.666 7.04477 26.666 6.66699C26.666 6.28921 26.5382 5.97255 26.2827 5.71699C26.0271 5.46144 25.7105 5.33366 25.3327 5.33366C24.9549 5.33366 24.6382 5.46144 24.3827 5.71699C24.1271 5.97255 23.9993 6.28921 23.9993 6.66699C23.9993 7.04477 24.1271 7.36144 24.3827 7.61699C24.6382 7.87255 24.9549 8.00033 25.3327 8.00033ZM10.4327 24.0003H21.566C21.766 23.4225 22.0771 22.9225 22.4993 22.5003C22.9216 22.0781 23.4216 21.767 23.9993 21.567V10.4337C23.4216 10.2337 22.9216 9.92255 22.4993 9.50033C22.0771 9.0781 21.766 8.5781 21.566 8.00033H10.4327C10.2327 8.5781 9.92157 9.0781 9.49935 9.50033C9.07713 9.92255 8.57713 10.2337 7.99935 10.4337V21.567C8.57713 21.767 9.07713 22.0781 9.49935 22.5003C9.92157 22.9225 10.2327 23.4225 10.4327 24.0003ZM25.3327 26.667C25.7105 26.667 26.0271 26.5392 26.2827 26.2837C26.5382 26.0281 26.666 25.7114 26.666 25.3337C26.666 24.9559 26.5382 24.6392 26.2827 24.3837C26.0271 24.1281 25.7105 24.0003 25.3327 24.0003C24.9549 24.0003 24.6382 24.1281 24.3827 24.3837C24.1271 24.6392 23.9993 24.9559 23.9993 25.3337C23.9993 25.7114 24.1271 26.0281 24.3827 26.2837C24.6382 26.5392 24.9549 26.667 25.3327 26.667ZM6.66602 26.667C7.04379 26.667 7.36046 26.5392 7.61602 26.2837C7.87157 26.0281 7.99935 25.7114 7.99935 25.3337C7.99935 24.9559 7.87157 24.6392 7.61602 24.3837C7.36046 24.1281 7.04379 24.0003 6.66602 24.0003C6.28824 24.0003 5.97157 24.1281 5.71602 24.3837C5.46046 24.6392 5.33268 24.9559 5.33268 25.3337C5.33268 25.7114 5.46046 26.0281 5.71602 26.2837C5.97157 26.5392 6.28824 26.667 6.66602 26.667Z" fill="#218448"/>
</svg>
