<svg width="32" height="32" viewBox="0 0 32 32" fill="none" xmlns="http://www.w3.org/2000/svg">
<path d="M27.9993 13.3337C27.6216 13.3337 27.3049 13.2059 27.0493 12.9503C26.7938 12.6948 26.666 12.3781 26.666 12.0003V9.33366H23.9993C23.6216 9.33366 23.3049 9.20588 23.0493 8.95033C22.7938 8.69477 22.666 8.3781 22.666 8.00033C22.666 7.62255 22.7938 7.30588 23.0493 7.05033C23.3049 6.79477 23.6216 6.66699 23.9993 6.66699H26.666C27.3993 6.66699 28.0271 6.9281 28.5493 7.45033C29.0716 7.97255 29.3327 8.60033 29.3327 9.33366V12.0003C29.3327 12.3781 29.2049 12.6948 28.9493 12.9503C28.6938 13.2059 28.3771 13.3337 27.9993 13.3337ZM3.99935 13.3337C3.62157 13.3337 3.3049 13.2059 3.04935 12.9503C2.79379 12.6948 2.66602 12.3781 2.66602 12.0003V9.33366C2.66602 8.60033 2.92713 7.97255 3.44935 7.45033C3.97157 6.9281 4.59935 6.66699 5.33268 6.66699H7.99935C8.37713 6.66699 8.69379 6.79477 8.94935 7.05033C9.2049 7.30588 9.33268 7.62255 9.33268 8.00033C9.33268 8.3781 9.2049 8.69477 8.94935 8.95033C8.69379 9.20588 8.37713 9.33366 7.99935 9.33366H5.33268V12.0003C5.33268 12.3781 5.2049 12.6948 4.94935 12.9503C4.69379 13.2059 4.37713 13.3337 3.99935 13.3337ZM23.9993 25.3337C23.6216 25.3337 23.3049 25.2059 23.0493 24.9503C22.7938 24.6948 22.666 24.3781 22.666 24.0003C22.666 23.6225 22.7938 23.3059 23.0493 23.0503C23.3049 22.7948 23.6216 22.667 23.9993 22.667H26.666V20.0003C26.666 19.6225 26.7938 19.3059 27.0493 19.0503C27.3049 18.7948 27.6216 18.667 27.9993 18.667C28.3771 18.667 28.6938 18.7948 28.9493 19.0503C29.2049 19.3059 29.3327 19.6225 29.3327 20.0003V22.667C29.3327 23.4003 29.0716 24.0281 28.5493 24.5503C28.0271 25.0725 27.3993 25.3337 26.666 25.3337H23.9993ZM5.33268 25.3337C4.59935 25.3337 3.97157 25.0725 3.44935 24.5503C2.92713 24.0281 2.66602 23.4003 2.66602 22.667V20.0003C2.66602 19.6225 2.79379 19.3059 3.04935 19.0503C3.3049 18.7948 3.62157 18.667 3.99935 18.667C4.37713 18.667 4.69379 18.7948 4.94935 19.0503C5.2049 19.3059 5.33268 19.6225 5.33268 20.0003V22.667H7.99935C8.37713 22.667 8.69379 22.7948 8.94935 23.0503C9.2049 23.3059 9.33268 23.6225 9.33268 24.0003C9.33268 24.3781 9.2049 24.6948 8.94935 24.9503C8.69379 25.2059 8.37713 25.3337 7.99935 25.3337H5.33268Z" fill="#218448"/>
</svg>
