<svg width="60" height="60" viewBox="0 0 60 60" fill="none" xmlns="http://www.w3.org/2000/svg">
<rect width="60" height="60" rx="30" fill="#218448" fill-opacity="0.2"/>
<path d="M20.0504 29C20.3004 26.4667 21.367 24.3333 23.2504 22.6C25.1337 20.8667 27.3837 20 30.0004 20C31.3837 20 32.6795 20.2625 33.8879 20.7875C35.0962 21.3125 36.1545 22.0292 37.0629 22.9375C37.9712 23.8458 38.6879 24.9042 39.2129 26.1125C39.7379 27.3208 40.0004 28.6167 40.0004 30C40.0004 31.3667 39.7379 32.6583 39.2129 33.875C38.6879 35.0917 37.9712 36.1542 37.0629 37.0625C36.1545 37.9708 35.0962 38.6875 33.8879 39.2125C32.6795 39.7375 31.3837 40 30.0004 40C29.117 40 28.2587 39.8917 27.4254 39.675C26.592 39.4583 25.8004 39.1333 25.0504 38.7C24.7504 38.5333 24.5837 38.2917 24.5504 37.975C24.517 37.6583 24.6337 37.3667 24.9004 37.1C25.0504 36.95 25.242 36.8583 25.4754 36.825C25.7087 36.7917 25.917 36.8333 26.1004 36.95C26.717 37.2833 27.3504 37.5417 28.0004 37.725C28.6504 37.9083 29.317 38 30.0004 38C32.217 38 34.1045 37.2208 35.6629 35.6625C37.2212 34.1042 38.0004 32.2167 38.0004 30C38.0004 27.7833 37.2212 25.8958 35.6629 24.3375C34.1045 22.7792 32.217 22 30.0004 22C27.9504 22 26.1754 22.6708 24.6754 24.0125C23.1754 25.3542 22.3004 27.0167 22.0504 29C22.017 29.2833 21.9045 29.5208 21.7129 29.7125C21.5212 29.9042 21.2837 30 21.0004 30C20.717 30 20.4795 29.9 20.2879 29.7C20.0962 29.5 20.017 29.2667 20.0504 29ZM34.0004 29.4V31C34.0004 31.2833 34.0962 31.5208 34.2879 31.7125C34.4795 31.9042 34.717 32 35.0004 32C35.2837 32 35.5212 31.9042 35.7129 31.7125C35.9045 31.5208 36.0004 31.2833 36.0004 31V27C36.0004 26.7167 35.9045 26.4792 35.7129 26.2875C35.5212 26.0958 35.2837 26 35.0004 26H31.0004C30.717 26 30.4795 26.0958 30.2879 26.2875C30.0962 26.4792 30.0004 26.7167 30.0004 27C30.0004 27.2833 30.0962 27.5208 30.2879 27.7125C30.4795 27.9042 30.717 28 31.0004 28H32.6004L28.9504 31.65L26.6504 29.725C26.4504 29.5583 26.2212 29.4833 25.9629 29.5C25.7045 29.5167 25.4837 29.6167 25.3004 29.8L21.4754 33.625C21.3087 33.7917 21.2129 33.9875 21.1879 34.2125C21.1629 34.4375 21.2087 34.65 21.3254 34.85C21.492 35.1333 21.7337 35.2917 22.0504 35.325C22.367 35.3583 22.642 35.2583 22.8754 35.025L26.0504 31.85L28.3504 33.775C28.5504 33.9417 28.7795 34.0167 29.0379 34C29.2962 33.9833 29.517 33.8833 29.7004 33.7L34.0004 29.4Z" fill="#218448"/>
</svg>
