<svg width="60" height="60" viewBox="0 0 60 60" fill="none" xmlns="http://www.w3.org/2000/svg">
<rect width="60" height="60" rx="30" fill="#218448" fill-opacity="0.2"/>
<path d="M22 39.0001C21.7167 39.0001 21.4792 38.9043 21.2875 38.7126C21.0958 38.5209 21 38.2834 21 38.0001V37.0001C21 36.7168 21.0958 36.4793 21.2875 36.2876C21.4792 36.0959 21.7167 36.0001 22 36.0001C22.2833 36.0001 22.5208 36.0959 22.7125 36.2876C22.9042 36.4793 23 36.7168 23 37.0001V38.0001C23 38.2834 22.9042 38.5209 22.7125 38.7126C22.5208 38.9043 22.2833 39.0001 22 39.0001ZM26 39.0001C25.7167 39.0001 25.4792 38.9043 25.2875 38.7126C25.0958 38.5209 25 38.2834 25 38.0001V32.5001C25 32.2168 25.0958 31.9793 25.2875 31.7876C25.4792 31.5959 25.7167 31.5001 26 31.5001C26.2833 31.5001 26.5208 31.5959 26.7125 31.7876C26.9042 31.9793 27 32.2168 27 32.5001V38.0001C27 38.2834 26.9042 38.5209 26.7125 38.7126C26.5208 38.9043 26.2833 39.0001 26 39.0001ZM30 39.0001C29.7167 39.0001 29.4792 38.9043 29.2875 38.7126C29.0958 38.5209 29 38.2834 29 38.0001V34.5001C29 34.2168 29.0958 33.9793 29.2875 33.7876C29.4792 33.5959 29.7167 33.5001 30 33.5001C30.2833 33.5001 30.5208 33.5959 30.7125 33.7876C30.9042 33.9793 31 34.2168 31 34.5001V38.0001C31 38.2834 30.9042 38.5209 30.7125 38.7126C30.5208 38.9043 30.2833 39.0001 30 39.0001ZM34 39.0001C33.7167 39.0001 33.4792 38.9043 33.2875 38.7126C33.0958 38.5209 33 38.2834 33 38.0001V33.0001C33 32.7168 33.0958 32.4793 33.2875 32.2876C33.4792 32.0959 33.7167 32.0001 34 32.0001C34.2833 32.0001 34.5208 32.0959 34.7125 32.2876C34.9042 32.4793 35 32.7168 35 33.0001V38.0001C35 38.2834 34.9042 38.5209 34.7125 38.7126C34.5208 38.9043 34.2833 39.0001 34 39.0001ZM38 39.0001C37.7167 39.0001 37.4792 38.9043 37.2875 38.7126C37.0958 38.5209 37 38.2834 37 38.0001V29.0001C37 28.7168 37.0958 28.4793 37.2875 28.2876C37.4792 28.0959 37.7167 28.0001 38 28.0001C38.2833 28.0001 38.5208 28.0959 38.7125 28.2876C38.9042 28.4793 39 28.7168 39 29.0001V38.0001C39 38.2834 38.9042 38.5209 38.7125 38.7126C38.5208 38.9043 38.2833 39.0001 38 39.0001ZM32 29.9751C31.7333 29.9751 31.4792 29.9251 31.2375 29.8251C30.9958 29.7251 30.775 29.5834 30.575 29.4001L28 26.8251L22.7 32.1251C22.5 32.3251 22.2625 32.4209 21.9875 32.4126C21.7125 32.4043 21.475 32.3001 21.275 32.1001C21.0917 31.9001 21.0042 31.6626 21.0125 31.3876C21.0208 31.1126 21.1167 30.8834 21.3 30.7001L26.575 25.4251C26.775 25.2251 26.9958 25.0793 27.2375 24.9876C27.4792 24.8959 27.7333 24.8501 28 24.8501C28.2667 24.8501 28.525 24.8959 28.775 24.9876C29.025 25.0793 29.2417 25.2251 29.425 25.4251L32 28.0001L37.3 22.7001C37.5 22.5001 37.7375 22.4043 38.0125 22.4126C38.2875 22.4209 38.525 22.5251 38.725 22.7251C38.9083 22.9251 38.9958 23.1626 38.9875 23.4376C38.9792 23.7126 38.8833 23.9418 38.7 24.1251L33.425 29.4001C33.2417 29.5834 33.025 29.7251 32.775 29.8251C32.525 29.9251 32.2667 29.9751 32 29.9751Z" fill="#218448"/>
</svg>
