<svg width="30" height="30" viewBox="0 0 30 30" fill="none" xmlns="http://www.w3.org/2000/svg">
<path d="M2.5 25V22.5H15V25H2.5ZM6.25 21.25C5.5625 21.25 4.97396 21.0052 4.48438 20.5156C3.99479 20.026 3.75 19.4375 3.75 18.75V7.5C3.75 6.8125 3.99479 6.22396 4.48438 5.73438C4.97396 5.24479 5.5625 5 6.25 5H23.75C24.4375 5 25.026 5.24479 25.5156 5.73438C26.0052 6.22396 26.25 6.8125 26.25 7.5H6.25V18.75H15V21.25H6.25ZM25 22.5V12.5H20V22.5H25ZM19.375 25C18.8542 25 18.4115 24.8177 18.0469 24.4531C17.6823 24.0885 17.5 23.6458 17.5 23.125V11.875C17.5 11.3542 17.6823 10.9115 18.0469 10.5469C18.4115 10.1823 18.8542 10 19.375 10H25.625C26.1458 10 26.5885 10.1823 26.9531 10.5469C27.3177 10.9115 27.5 11.3542 27.5 11.875V23.125C27.5 23.6458 27.3177 24.0885 26.9531 24.4531C26.5885 24.8177 26.1458 25 25.625 25H19.375ZM22.5 15.625C22.7708 15.625 22.9948 15.5312 23.1719 15.3438C23.349 15.1562 23.4375 14.9375 23.4375 14.6875C23.4375 14.4167 23.349 14.1927 23.1719 14.0156C22.9948 13.8385 22.7708 13.75 22.5 13.75C22.25 13.75 22.0312 13.8385 21.8438 14.0156C21.6562 14.1927 21.5625 14.4167 21.5625 14.6875C21.5625 14.9375 21.6562 15.1562 21.8438 15.3438C22.0312 15.5312 22.25 15.625 22.5 15.625Z" fill="#218448"/>
</svg>
