<svg width="32" height="32" viewBox="0 0 32 32" fill="none" xmlns="http://www.w3.org/2000/svg">
<path d="M15.9997 29.3329C12.4219 26.2884 9.74967 23.4607 7.98301 20.8495C6.21634 18.2384 5.33301 15.8218 5.33301 13.5995C5.33301 10.2662 6.40523 7.61066 8.54967 5.63288C10.6941 3.6551 13.1775 2.66621 15.9997 2.66621C16.5997 2.66621 17.1941 2.71621 17.783 2.81621C18.3719 2.91621 18.9441 3.0551 19.4997 3.23288L17.333 5.43288C17.1108 5.38843 16.8941 5.36066 16.683 5.34954C16.4719 5.33843 16.2441 5.33288 15.9997 5.33288C13.7552 5.33288 11.8608 6.1051 10.3163 7.64954C8.7719 9.19399 7.99967 11.1773 7.99967 13.5995C7.99967 15.1773 8.65523 16.9829 9.96634 19.0162C11.2775 21.0495 13.2886 23.3107 15.9997 25.7995C18.7108 23.3107 20.7219 21.0495 22.033 19.0162C23.3441 16.9829 23.9997 15.1773 23.9997 13.5995C23.9997 13.3329 23.9886 13.0662 23.9663 12.7995C23.9441 12.5329 23.9108 12.2773 23.8663 12.0329L26.0663 9.83288C26.2663 10.4107 26.4163 11.0107 26.5163 11.6329C26.6163 12.2551 26.6663 12.9107 26.6663 13.5995C26.6663 15.8218 25.783 18.2384 24.0163 20.8495C22.2497 23.4607 19.5775 26.2884 15.9997 29.3329ZM24.4663 5.13288L22.933 3.59954L14.6663 11.8662V14.6662H17.4663L25.733 6.39954L24.4663 5.13288ZM26.6663 5.46621L27.5997 4.53288C27.8441 4.28843 27.9663 3.97732 27.9663 3.59954C27.9663 3.22177 27.8441 2.91066 27.5997 2.66621L26.6663 1.73288C26.4219 1.48843 26.1108 1.36621 25.733 1.36621C25.3552 1.36621 25.0441 1.48843 24.7997 1.73288L23.8663 2.66621L26.6663 5.46621Z" fill="#04471E"/>
</svg>
