<svg width="30" height="30" viewBox="0 0 30 30" fill="none" xmlns="http://www.w3.org/2000/svg">
<path d="M3.75 8.75C3.75 6.39298 3.75 5.21446 4.48224 4.48224C5.21446 3.75 6.39298 3.75 8.75 3.75H15H21.25C23.607 3.75 24.7855 3.75 25.5177 4.48224C26.25 5.21446 26.25 6.39298 26.25 8.75V12.5V16.25C26.25 18.607 26.25 19.7855 25.5177 20.5177C24.7855 21.25 23.607 21.25 21.25 21.25H15H8.75C6.39298 21.25 5.21446 21.25 4.48224 20.5177C3.75 19.7855 3.75 18.607 3.75 16.25V12.5V8.75Z" stroke="#218448" stroke-width="2.3" stroke-linejoin="round"/>
<path d="M11.25 26.25L14.5312 21.875C14.7656 21.5625 15.2344 21.5625 15.4688 21.875L18.75 26.25" stroke="#218448" stroke-width="2.3" stroke-linecap="round" stroke-linejoin="round"/>
<path d="M8.75 16.25L12.0039 12.1826C12.8192 11.1635 14.4164 11.3326 15 12.5C15.5836 13.6674 17.1807 13.8365 17.9961 12.8174L21.25 8.75" stroke="#218448" stroke-width="2.3" stroke-linecap="round" stroke-linejoin="round"/>
</svg>
