<svg width="30" height="30" viewBox="0 0 30 30" fill="none" xmlns="http://www.w3.org/2000/svg">
<path d="M16.2188 27.4375V24.9375C17.0938 24.8125 17.9427 24.5729 18.7656 24.2188C19.5885 23.8646 20.3646 23.4167 21.0938 22.875L22.9062 24.6875C21.9271 25.4583 20.875 26.0781 19.75 26.5469C18.625 27.0156 17.4479 27.3125 16.2188 27.4375ZM24.6562 22.875L22.9062 21.125C23.4479 20.4375 23.8854 19.6823 24.2188 18.8594C24.5521 18.0365 24.7812 17.1667 24.9062 16.25H27.4688C27.3021 17.5417 26.9844 18.7448 26.5156 19.8594C26.0469 20.974 25.4271 21.9792 24.6562 22.875ZM24.9062 13.75C24.7812 12.8125 24.5521 11.9323 24.2188 11.1094C23.8854 10.2865 23.4479 9.54167 22.9062 8.875L24.6562 7.125C25.4479 8.04167 26.0885 9.0625 26.5781 10.1875C27.0677 11.3125 27.3646 12.5 27.4688 13.75H24.9062ZM13.7188 27.4375C10.5312 27.0625 7.86979 25.6979 5.73438 23.3438C3.59896 20.9896 2.53125 18.2083 2.53125 15C2.53125 11.7708 3.59896 8.97917 5.73438 6.625C7.86979 4.27083 10.5312 2.91667 13.7188 2.5625V5.0625C11.2188 5.41667 9.14583 6.53125 7.5 8.40625C5.85417 10.2812 5.03125 12.4792 5.03125 15C5.03125 17.5208 5.85417 19.7135 7.5 21.5781C9.14583 23.4427 11.2188 24.5625 13.7188 24.9375V27.4375ZM21.1562 7.125C20.4062 6.5625 19.6146 6.10417 18.7812 5.75C17.9479 5.39583 17.0938 5.16667 16.2188 5.0625V2.5625C17.4479 2.66667 18.625 2.95312 19.75 3.42188C20.875 3.89062 21.9271 4.52083 22.9062 5.3125L21.1562 7.125ZM15 21.25C13.7917 20.2292 12.6562 19.1354 11.5938 17.9688C10.5312 16.8021 10 15.4375 10 13.875C10 12.4583 10.4844 11.25 11.4531 10.25C12.4219 9.25 13.6042 8.75 15 8.75C16.3958 8.75 17.5781 9.25 18.5469 10.25C19.5156 11.25 20 12.4583 20 13.875C20 15.4375 19.4688 16.8021 18.4062 17.9688C17.3438 19.1354 16.2083 20.2292 15 21.25ZM15 15C15.375 15 15.6927 14.8698 15.9531 14.6094C16.2135 14.349 16.3438 14.0312 16.3438 13.6562C16.3438 13.3021 16.2135 12.9896 15.9531 12.7188C15.6927 12.4479 15.375 12.3125 15 12.3125C14.625 12.3125 14.3073 12.4479 14.0469 12.7188C13.7865 12.9896 13.6562 13.3021 13.6562 13.6562C13.6562 14.0312 13.7865 14.349 14.0469 14.6094C14.3073 14.8698 14.625 15 15 15Z" fill="#218448"/>
</svg>
