<svg width="32" height="32" viewBox="0 0 32 32" fill="none" xmlns="http://www.w3.org/2000/svg">
<path d="M11.7333 28H6.66667C5.93333 28 5.30556 27.7389 4.78333 27.2167C4.26111 26.6944 4 26.0667 4 25.3333V20.2667C5.06667 20.2667 6 19.9278 6.8 19.25C7.6 18.5722 8 17.7111 8 16.6667C8 15.6222 7.6 14.7611 6.8 14.0833C6 13.4056 5.06667 13.0667 4 13.0667V8C4 7.26667 4.26111 6.63889 4.78333 6.11667C5.30556 5.59444 5.93333 5.33333 6.66667 5.33333H12C12 4.4 12.3222 3.61111 12.9667 2.96667C13.6111 2.32222 14.4 2 15.3333 2C16.2667 2 17.0556 2.32222 17.7 2.96667C18.3444 3.61111 18.6667 4.4 18.6667 5.33333H24C24.7333 5.33333 25.3611 5.59444 25.8833 6.11667C26.4056 6.63889 26.6667 7.26667 26.6667 8V13.3333C27.6 13.3333 28.3889 13.6556 29.0333 14.3C29.6778 14.9444 30 15.7333 30 16.6667C30 17.6 29.6778 18.3889 29.0333 19.0333C28.3889 19.6778 27.6 20 26.6667 20V25.3333C26.6667 26.0667 26.4056 26.6944 25.8833 27.2167C25.3611 27.7389 24.7333 28 24 28H18.9333C18.9333 26.8889 18.5833 25.9444 17.8833 25.1667C17.1833 24.3889 16.3333 24 15.3333 24C14.3333 24 13.4833 24.3889 12.7833 25.1667C12.0833 25.9444 11.7333 26.8889 11.7333 28ZM6.66667 25.3333H9.5C10.0333 23.8667 10.8889 22.8333 12.0667 22.2333C13.2444 21.6333 14.3333 21.3333 15.3333 21.3333C16.3333 21.3333 17.4222 21.6333 18.6 22.2333C19.7778 22.8333 20.6333 23.8667 21.1667 25.3333H24V17.3333H26.6667C26.8444 17.3333 27 17.2667 27.1333 17.1333C27.2667 17 27.3333 16.8444 27.3333 16.6667C27.3333 16.4889 27.2667 16.3333 27.1333 16.2C27 16.0667 26.8444 16 26.6667 16H24V8H16V5.33333C16 5.15556 15.9333 5 15.8 4.86667C15.6667 4.73333 15.5111 4.66667 15.3333 4.66667C15.1556 4.66667 15 4.73333 14.8667 4.86667C14.7333 5 14.6667 5.15556 14.6667 5.33333V8H6.66667V10.9333C7.86667 11.3778 8.83333 12.1222 9.56667 13.1667C10.3 14.2111 10.6667 15.3778 10.6667 16.6667C10.6667 17.9333 10.3 19.0889 9.56667 20.1333C8.83333 21.1778 7.86667 21.9333 6.66667 22.4V25.3333Z" fill="#218448"/>
</svg>
