<svg width="30" height="30" viewBox="0 0 30 30" fill="none" xmlns="http://www.w3.org/2000/svg">
<path d="M8.125 13.751L15 2.50098L21.875 13.751H8.125ZM21.875 27.501C20.3125 27.501 18.9844 26.9541 17.8906 25.8603C16.7969 24.7666 16.25 23.4385 16.25 21.876C16.25 20.3135 16.7969 18.9853 17.8906 17.8916C18.9844 16.7979 20.3125 16.251 21.875 16.251C23.4375 16.251 24.7656 16.7979 25.8594 17.8916C26.9531 18.9853 27.5 20.3135 27.5 21.876C27.5 23.4385 26.9531 24.7666 25.8594 25.8603C24.7656 26.9541 23.4375 27.501 21.875 27.501ZM3.75 26.876V16.876H13.75V26.876H3.75ZM21.875 25.001C22.75 25.001 23.4896 24.6989 24.0938 24.0947C24.6979 23.4906 25 22.751 25 21.876C25 21.001 24.6979 20.2614 24.0938 19.6572C23.4896 19.0531 22.75 18.751 21.875 18.751C21 18.751 20.2604 19.0531 19.6563 19.6572C19.0521 20.2614 18.75 21.001 18.75 21.876C18.75 22.751 19.0521 23.4906 19.6563 24.0947C20.2604 24.6989 21 25.001 21.875 25.001ZM6.25 24.376H11.25V19.376H6.25V24.376ZM12.5625 11.251H17.4375L15 7.31348L12.5625 11.251Z" fill="#218448"/>
</svg>
