<svg width="30" height="30" viewBox="0 0 30 30" fill="none" xmlns="http://www.w3.org/2000/svg">
<path d="M4.96875 26.2495V22.4995H8.84375L5.65625 12.062C5.09375 11.7495 4.63021 11.2912 4.26562 10.687C3.90104 10.0829 3.71875 9.43704 3.71875 8.74954C3.71875 7.70787 4.08333 6.82246 4.8125 6.09329C5.54167 5.36412 6.42708 4.99954 7.46875 4.99954C8.28125 4.99954 9.00521 5.23392 9.64062 5.70267C10.276 6.17142 10.7188 6.77037 10.9688 7.49954H14.9688V6.24954C14.9688 5.89537 15.0885 5.5985 15.3281 5.35892C15.5677 5.11933 15.8646 4.99954 16.2188 4.99954C16.4062 4.99954 16.5885 5.04121 16.7656 5.12454C16.9427 5.20787 17.0938 5.33287 17.2188 5.49954L19.3438 3.49954C19.5312 3.31204 19.7552 3.19225 20.0156 3.14017C20.276 3.08808 20.5312 3.12454 20.7812 3.24954L25.6562 5.49954C25.9062 5.62454 26.0781 5.80683 26.1719 6.04642C26.2656 6.286 26.2604 6.52037 26.1562 6.74954C26.0312 6.99954 25.849 7.161 25.6094 7.23392C25.3698 7.30683 25.1354 7.29121 24.9062 7.18704L20.4062 5.12454L17.4688 7.87454V9.62454L20.4062 12.312L24.9062 10.2495C25.1354 10.1454 25.375 10.135 25.625 10.2183C25.875 10.3016 26.0521 10.4579 26.1562 10.687C26.2812 10.937 26.2917 11.1766 26.1875 11.4058C26.0833 11.635 25.9062 11.812 25.6562 11.937L20.7812 14.2495C20.5312 14.3745 20.276 14.411 20.0156 14.3589C19.7552 14.3068 19.5312 14.187 19.3438 13.9995L17.2188 11.9995C17.0938 12.1245 16.9427 12.2391 16.7656 12.3433C16.5885 12.4475 16.4062 12.4995 16.2188 12.4995C15.8646 12.4995 15.5677 12.3797 15.3281 12.1402C15.0885 11.9006 14.9688 11.6037 14.9688 11.2495V9.99954H10.9688C10.9062 10.1662 10.8385 10.3225 10.7656 10.4683C10.6927 10.6141 10.5938 10.7704 10.4688 10.937L16.7188 22.4995H21.2188V26.2495H4.96875ZM7.46875 9.99954C7.82292 9.99954 8.11979 9.87975 8.35938 9.64017C8.59896 9.40058 8.71875 9.10371 8.71875 8.74954C8.71875 8.39537 8.59896 8.0985 8.35938 7.85892C8.11979 7.61933 7.82292 7.49954 7.46875 7.49954C7.11458 7.49954 6.81771 7.61933 6.57812 7.85892C6.33854 8.0985 6.21875 8.39537 6.21875 8.74954C6.21875 9.10371 6.33854 9.40058 6.57812 9.64017C6.81771 9.87975 7.11458 9.99954 7.46875 9.99954ZM11.4062 22.4995H13.8438L8.46875 12.4995H8.34375L11.4062 22.4995Z" fill="#218448"/>
</svg>
