<svg width="30" height="30" viewBox="0 0 30 30" fill="none" xmlns="http://www.w3.org/2000/svg">
<path d="M7.125 18.75C5.04221 19.5441 3.75 20.6506 3.75 21.8746C3.75 24.2911 8.7868 26.25 15 26.25C21.2133 26.25 26.25 24.2911 26.25 21.8746C26.25 20.6506 24.9577 19.5441 22.875 18.75M15 11.25H15.0125M22.5 11.25C22.5 16.3296 16.875 18.75 15 22.5C13.125 18.75 7.5 16.3296 7.5 11.25C7.5 7.10786 10.8579 3.75 15 3.75C19.1421 3.75 22.5 7.10786 22.5 11.25ZM16.25 11.25C16.25 11.9404 15.6904 12.5 15 12.5C14.3096 12.5 13.75 11.9404 13.75 11.25C13.75 10.5596 14.3096 10 15 10C15.6904 10 16.25 10.5596 16.25 11.25Z" stroke="#218448" stroke-width="2.5" stroke-linecap="round" stroke-linejoin="round"/>
</svg>
