<svg width="30" height="30" viewBox="0 0 30 30" fill="none" xmlns="http://www.w3.org/2000/svg">
<path d="M10 27.5C9.3125 27.5 8.72396 27.2552 8.23438 26.7656C7.74479 26.276 7.5 25.6875 7.5 25V10C7.5 9.3125 7.74479 8.72396 8.23438 8.23438C8.72396 7.74479 9.3125 7.5 10 7.5H25C25.6875 7.5 26.276 7.74479 26.7656 8.23438C27.2552 8.72396 27.5 9.3125 27.5 10V25C27.5 25.6875 27.2552 26.276 26.7656 26.7656C26.276 27.2552 25.6875 27.5 25 27.5H10ZM10 25H16.25V21.25H10V25ZM18.75 25H25V21.25H18.75V25ZM2.5 22.5V5C2.5 4.3125 2.74479 3.72396 3.23438 3.23438C3.72396 2.74479 4.3125 2.5 5 2.5H22.5V5H5V22.5H2.5ZM10 18.75H16.25V15H10V18.75ZM18.75 18.75H25V15H18.75V18.75ZM10 12.5H25V10H10V12.5Z" fill="#218448"/>
</svg>
