<svg width="32" height="32" viewBox="0 0 32 32" fill="none" xmlns="http://www.w3.org/2000/svg">
<path d="M6.66602 29.3346C5.5549 29.3346 4.61046 28.9457 3.83268 28.168C3.0549 27.3902 2.66602 26.4457 2.66602 25.3346C2.66602 24.468 2.91602 23.6957 3.41602 23.018C3.91602 22.3402 4.5549 21.8569 5.33268 21.568V10.4346C4.5549 10.1457 3.91602 9.66241 3.41602 8.98463C2.91602 8.30686 2.66602 7.53464 2.66602 6.66797C2.66602 5.55686 3.0549 4.61241 3.83268 3.83464C4.61046 3.05686 5.5549 2.66797 6.66602 2.66797C7.53268 2.66797 8.3049 2.91797 8.98268 3.41797C9.66046 3.91797 10.1438 4.55686 10.4327 5.33464H21.566C21.8327 4.55686 22.3049 3.91797 22.9827 3.41797C23.6605 2.91797 24.4438 2.66797 25.3327 2.66797C26.4438 2.66797 27.3882 3.05686 28.166 3.83464C28.9438 4.61241 29.3327 5.55686 29.3327 6.66797C29.3327 7.55686 29.0827 8.34019 28.5827 9.01797C28.0827 9.69575 27.4438 10.168 26.666 10.4346V21.568C27.4438 21.8569 28.0827 22.3402 28.5827 23.018C29.0827 23.6957 29.3327 24.468 29.3327 25.3346C29.3327 26.4457 28.9438 27.3902 28.166 28.168C27.3882 28.9457 26.4438 29.3346 25.3327 29.3346C24.466 29.3346 23.6938 29.0846 23.016 28.5846C22.3382 28.0846 21.8549 27.4457 21.566 26.668H10.4327C10.1438 27.4457 9.66046 28.0846 8.98268 28.5846C8.3049 29.0846 7.53268 29.3346 6.66602 29.3346ZM6.66602 8.0013C7.04379 8.0013 7.36046 7.87352 7.61602 7.61797C7.87157 7.36241 7.99935 7.04575 7.99935 6.66797C7.99935 6.29019 7.87157 5.97352 7.61602 5.71797C7.36046 5.46241 7.04379 5.33464 6.66602 5.33464C6.28824 5.33464 5.97157 5.46241 5.71602 5.71797C5.46046 5.97352 5.33268 6.29019 5.33268 6.66797C5.33268 7.04575 5.46046 7.36241 5.71602 7.61797C5.97157 7.87352 6.28824 8.0013 6.66602 8.0013ZM25.3327 8.0013C25.7105 8.0013 26.0271 7.87352 26.2827 7.61797C26.5382 7.36241 26.666 7.04575 26.666 6.66797C26.666 6.29019 26.5382 5.97352 26.2827 5.71797C26.0271 5.46241 25.7105 5.33464 25.3327 5.33464C24.9549 5.33464 24.6382 5.46241 24.3827 5.71797C24.1271 5.97352 23.9993 6.29019 23.9993 6.66797C23.9993 7.04575 24.1271 7.36241 24.3827 7.61797C24.6382 7.87352 24.9549 8.0013 25.3327 8.0013ZM10.4327 24.0013H21.566C21.766 23.4235 22.0771 22.9235 22.4993 22.5013C22.9216 22.0791 23.4216 21.768 23.9993 21.568V10.4346C23.4216 10.2346 22.9216 9.92352 22.4993 9.5013C22.0771 9.07908 21.766 8.57908 21.566 8.0013H10.4327C10.2327 8.57908 9.92157 9.07908 9.49935 9.5013C9.07713 9.92352 8.57713 10.2346 7.99935 10.4346V21.568C8.57713 21.768 9.07713 22.0791 9.49935 22.5013C9.92157 22.9235 10.2327 23.4235 10.4327 24.0013ZM25.3327 26.668C25.7105 26.668 26.0271 26.5402 26.2827 26.2846C26.5382 26.0291 26.666 25.7124 26.666 25.3346C26.666 24.9569 26.5382 24.6402 26.2827 24.3846C26.0271 24.1291 25.7105 24.0013 25.3327 24.0013C24.9549 24.0013 24.6382 24.1291 24.3827 24.3846C24.1271 24.6402 23.9993 24.9569 23.9993 25.3346C23.9993 25.7124 24.1271 26.0291 24.3827 26.2846C24.6382 26.5402 24.9549 26.668 25.3327 26.668ZM6.66602 26.668C7.04379 26.668 7.36046 26.5402 7.61602 26.2846C7.87157 26.0291 7.99935 25.7124 7.99935 25.3346C7.99935 24.9569 7.87157 24.6402 7.61602 24.3846C7.36046 24.1291 7.04379 24.0013 6.66602 24.0013C6.28824 24.0013 5.97157 24.1291 5.71602 24.3846C5.46046 24.6402 5.33268 24.9569 5.33268 25.3346C5.33268 25.7124 5.46046 26.0291 5.71602 26.2846C5.97157 26.5402 6.28824 26.668 6.66602 26.668Z" fill="#218448"/>
</svg>
