<svg width="32" height="32" viewBox="0 0 32 32" fill="none" xmlns="http://www.w3.org/2000/svg">
<path d="M6.66732 29.3346V26.668H14.6673V21.3346H12.0007C10.1562 21.3346 8.58398 20.6846 7.28398 19.3846C5.98398 18.0846 5.33398 16.5124 5.33398 14.668C5.33398 13.3346 5.70065 12.1069 6.43398 10.9846C7.16732 9.86241 8.15621 9.04575 9.40065 8.53464C9.60065 6.86797 10.3284 5.47352 11.584 4.3513C12.8395 3.22908 14.3118 2.66797 16.0007 2.66797C17.6895 2.66797 19.1618 3.22908 20.4173 4.3513C21.6729 5.47352 22.4007 6.86797 22.6007 8.53464C23.8451 9.04575 24.834 9.86241 25.5673 10.9846C26.3007 12.1069 26.6673 13.3346 26.6673 14.668C26.6673 16.5124 26.0173 18.0846 24.7173 19.3846C23.4173 20.6846 21.8451 21.3346 20.0007 21.3346H17.334V26.668H25.334V29.3346H6.66732ZM12.0007 18.668H20.0007C21.1118 18.668 22.0562 18.2791 22.834 17.5013C23.6118 16.7235 24.0007 15.7791 24.0007 14.668C24.0007 13.868 23.7729 13.1346 23.3173 12.468C22.8618 11.8013 22.2673 11.3124 21.534 11.0013L20.134 10.4013L19.934 8.86797C19.8007 7.86797 19.3618 7.02908 18.6173 6.3513C17.8729 5.67352 17.0007 5.33464 16.0007 5.33464C15.0007 5.33464 14.1284 5.67352 13.384 6.3513C12.6395 7.02908 12.2007 7.86797 12.0673 8.86797L11.8673 10.4013L10.4673 11.0013C9.73398 11.3124 9.13954 11.8013 8.68398 12.468C8.22843 13.1346 8.00065 13.868 8.00065 14.668C8.00065 15.7791 8.38954 16.7235 9.16732 17.5013C9.9451 18.2791 10.8895 18.668 12.0007 18.668Z" fill="#218448"/>
<rect x="16" width="16" height="16" rx="8" fill="#555555"/>
<path d="M23.334 11.8987L21.6173 13.582C21.4951 13.7043 21.3423 13.7654 21.159 13.7654C20.9757 13.7654 20.8229 13.6987 20.7007 13.5654C20.5673 13.4431 20.5007 13.2904 20.5007 13.107C20.5007 12.9237 20.5673 12.7654 20.7007 12.632L23.334 9.9987V8.66536H22.0007L19.3507 11.3154C19.2284 11.4376 19.0757 11.4987 18.8923 11.4987C18.709 11.4987 18.5507 11.432 18.4173 11.2987C18.2951 11.1765 18.234 11.0237 18.234 10.8404C18.234 10.657 18.2951 10.5043 18.4173 10.382L20.1007 8.66536H17.984C17.7951 8.66536 17.6395 8.60148 17.5173 8.4737C17.3951 8.34592 17.334 8.18759 17.334 7.9987C17.334 7.80981 17.3979 7.65148 17.5257 7.5237C17.6534 7.39592 17.8118 7.33203 18.0007 7.33203H20.1007L18.4173 5.63203C18.2951 5.50981 18.234 5.35703 18.234 5.1737C18.234 4.99036 18.3007 4.83203 18.434 4.6987C18.5562 4.57648 18.709 4.51536 18.8923 4.51536C19.0757 4.51536 19.234 4.57648 19.3673 4.6987L22.0007 7.33203H23.334V5.9987L20.684 3.36536C20.5618 3.24314 20.5007 3.09036 20.5007 2.90703C20.5007 2.7237 20.5673 2.56536 20.7007 2.43203C20.8229 2.30981 20.9757 2.2487 21.159 2.2487C21.3423 2.2487 21.4951 2.30981 21.6173 2.43203L23.334 4.0987V1.9987C23.334 1.80981 23.3979 1.65148 23.5257 1.5237C23.6534 1.39592 23.8118 1.33203 24.0007 1.33203C24.1895 1.33203 24.3479 1.39592 24.4757 1.5237C24.6034 1.65148 24.6673 1.80981 24.6673 1.9987V4.0987L26.3673 2.43203C26.4895 2.30981 26.6423 2.2487 26.8257 2.2487C27.009 2.2487 27.1673 2.30981 27.3007 2.43203C27.4229 2.56536 27.484 2.7237 27.484 2.90703C27.484 3.09036 27.4229 3.24314 27.3007 3.36536L24.6673 5.9987V7.33203H26.0007L28.634 4.6987C28.7562 4.57648 28.909 4.51536 29.0923 4.51536C29.2757 4.51536 29.434 4.58203 29.5673 4.71536C29.6895 4.83759 29.7507 4.99036 29.7507 5.1737C29.7507 5.35703 29.6895 5.50981 29.5673 5.63203L27.9007 7.33203H30.0007C30.1895 7.33203 30.3479 7.39592 30.4756 7.5237C30.6034 7.65148 30.6673 7.80981 30.6673 7.9987C30.6673 8.18759 30.6034 8.34592 30.4756 8.4737C30.3479 8.60148 30.1895 8.66536 30.0007 8.66536H27.9007L29.5673 10.382C29.6895 10.5043 29.7507 10.657 29.7507 10.8404C29.7507 11.0237 29.6895 11.1765 29.5673 11.2987C29.434 11.432 29.2757 11.4987 29.0923 11.4987C28.909 11.4987 28.7562 11.432 28.634 11.2987L26.0007 8.66536H24.6673V9.9987L27.3007 12.6487C27.4229 12.7709 27.484 12.9237 27.484 13.107C27.484 13.2904 27.4173 13.4487 27.284 13.582C27.1618 13.7043 27.009 13.7654 26.8257 13.7654C26.6423 13.7654 26.4895 13.7043 26.3673 13.582L24.6673 11.8987V14.0154C24.6673 14.2043 24.6034 14.3598 24.4757 14.482C24.3479 14.6043 24.1895 14.6654 24.0007 14.6654C23.8118 14.6654 23.6534 14.6015 23.5257 14.4737C23.3979 14.3459 23.334 14.1876 23.334 13.9987V11.8987Z" fill="white"/>
</svg>
