<svg width="32" height="32" viewBox="0 0 32 32" fill="none" xmlns="http://www.w3.org/2000/svg">
<path d="M14.666 18.666H17.3327C17.7105 18.666 18.0271 18.5382 18.2827 18.2827C18.5382 18.0271 18.666 17.7105 18.666 17.3327C18.666 16.9549 18.5382 16.6382 18.2827 16.3827C18.0271 16.1271 17.7105 15.9993 17.3327 15.9993H14.666C14.2882 15.9993 13.9716 16.1271 13.716 16.3827C13.4605 16.6382 13.3327 16.9549 13.3327 17.3327C13.3327 17.7105 13.4605 18.0271 13.716 18.2827C13.9716 18.5382 14.2882 18.666 14.666 18.666ZM14.666 14.666H22.666C23.0438 14.666 23.3605 14.5382 23.616 14.2827C23.8716 14.0271 23.9993 13.7105 23.9993 13.3327C23.9993 12.9549 23.8716 12.6382 23.616 12.3827C23.3605 12.1271 23.0438 11.9993 22.666 11.9993H14.666C14.2882 11.9993 13.9716 12.1271 13.716 12.3827C13.4605 12.6382 13.3327 12.9549 13.3327 13.3327C13.3327 13.7105 13.4605 14.0271 13.716 14.2827C13.9716 14.5382 14.2882 14.666 14.666 14.666ZM14.666 10.666H22.666C23.0438 10.666 23.3605 10.5382 23.616 10.2827C23.8716 10.0271 23.9993 9.71046 23.9993 9.33268C23.9993 8.95491 23.8716 8.63824 23.616 8.38268C23.3605 8.12713 23.0438 7.99935 22.666 7.99935H14.666C14.2882 7.99935 13.9716 8.12713 13.716 8.38268C13.4605 8.63824 13.3327 8.95491 13.3327 9.33268C13.3327 9.71046 13.4605 10.0271 13.716 10.2827C13.9716 10.5382 14.2882 10.666 14.666 10.666ZM10.666 23.9993C9.93268 23.9993 9.3049 23.7382 8.78268 23.216C8.26046 22.6938 7.99935 22.066 7.99935 21.3327V5.33268C7.99935 4.59935 8.26046 3.97157 8.78268 3.44935C9.3049 2.92713 9.93268 2.66602 10.666 2.66602H26.666C27.3994 2.66602 28.0271 2.92713 28.5494 3.44935C29.0716 3.97157 29.3327 4.59935 29.3327 5.33268V21.3327C29.3327 22.066 29.0716 22.6938 28.5494 23.216C28.0271 23.7382 27.3994 23.9993 26.666 23.9993H10.666ZM10.666 21.3327H26.666V5.33268H10.666V21.3327ZM5.33268 29.3327C4.59935 29.3327 3.97157 29.0716 3.44935 28.5494C2.92713 28.0271 2.66602 27.3994 2.66602 26.666V9.33268C2.66602 8.95491 2.79379 8.63824 3.04935 8.38268C3.3049 8.12713 3.62157 7.99935 3.99935 7.99935C4.37713 7.99935 4.69379 8.12713 4.94935 8.38268C5.2049 8.63824 5.33268 8.95491 5.33268 9.33268V26.666H22.666C23.0438 26.666 23.3605 26.7938 23.616 27.0494C23.8716 27.3049 23.9993 27.6216 23.9993 27.9993C23.9993 28.3771 23.8716 28.6938 23.616 28.9494C23.3605 29.2049 23.0438 29.3327 22.666 29.3327H5.33268Z" fill="#218448"/>
</svg>
