<svg width="32" height="32" viewBox="0 0 32 32" fill="none" xmlns="http://www.w3.org/2000/svg">
<g clip-path="url(#clip0_677_4204)">
<path d="M16 10.6667C13.0533 10.6667 10.6667 13.0533 10.6667 16C10.6667 18.9467 13.0533 21.3333 16 21.3333C18.9467 21.3333 21.3333 18.9467 21.3333 16C21.3333 13.0533 18.9467 10.6667 16 10.6667ZM6.66667 20H4V25.3333C4 26.8 5.2 28 6.66667 28H12V25.3333H6.66667V20ZM6.66667 6.66667H12V4H6.66667C5.2 4 4 5.2 4 6.66667V12H6.66667V6.66667ZM25.3333 4H20V6.66667H25.3333V12H28V6.66667C28 5.2 26.8 4 25.3333 4ZM25.3333 25.3333H20V28H25.3333C26.8 28 28 26.8 28 25.3333V20H25.3333V25.3333Z" fill="#218448"/>
</g>
<defs>
<clipPath id="clip0_677_4204">
<rect width="32" height="32" fill="white"/>
</clipPath>
</defs>
</svg>
