<svg width="60" height="60" viewBox="0 0 60 60" fill="none" xmlns="http://www.w3.org/2000/svg">
<g filter="url(#filter0_n_828_641)">
<rect width="60" height="60" rx="30" fill="#218448" fill-opacity="0.2"/>
<path d="M41.6996 35.6642C42.5346 33.9407 42.9784 32.0539 42.9992 30.1389C43.0201 28.2239 42.6175 26.328 41.8202 24.5867C41.023 22.8454 39.8508 21.3018 38.3875 20.0663C36.9242 18.8308 35.2059 17.934 33.3556 17.4399C33.3331 17.4329 33.3103 17.4269 33.2874 17.4214C31.2575 16.8914 29.1294 16.8609 27.0851 17.3326C25.0409 17.8043 23.1413 18.7642 21.549 20.1301C21.488 20.1724 21.432 20.2214 21.382 20.2761C19.4067 22.0244 18.0102 24.3325 17.3783 26.8936C16.7464 29.4547 16.909 32.1474 17.8444 34.6139C18.7798 37.0804 20.4437 39.2037 22.615 40.7017C24.7863 42.1996 27.3621 43.0013 30 43C30.092 43 30.1836 42.9984 30.2751 42.9965C30.2774 42.9965 30.2797 42.9968 30.2819 42.9968C30.2863 42.9968 30.2905 42.9963 30.2948 42.9963C32.6557 42.9406 34.9571 42.2436 36.9522 40.9799C38.9473 39.7163 40.561 37.9337 41.6205 35.8231L41.6223 35.8204C41.6526 35.7707 41.6784 35.7184 41.6996 35.6642ZM41 30C41.0011 31.3105 40.767 32.6106 40.3086 33.8383L34.5085 30.271C34.2708 30.1244 34.0049 30.0296 33.7281 29.9927L30.8758 29.6082C30.5091 29.5606 30.1364 29.6149 29.7986 29.7652C29.4608 29.9154 29.1708 30.1558 28.9606 30.46H27.8927L27.4171 29.4774C27.2846 29.2037 27.0914 28.9637 26.8523 28.7759C26.6131 28.588 26.3342 28.4572 26.0369 28.3933L25.2162 28.2169L25.5309 27.4698C25.6073 27.2885 25.7354 27.1337 25.8994 27.0249C26.0633 26.9161 26.2557 26.858 26.4525 26.858H28.4568C28.7949 26.8579 29.1275 26.7721 29.4236 26.6088L30.954 25.7637C31.0887 25.6893 31.2143 25.5996 31.3285 25.4965L34.6923 22.4542C34.9823 22.194 35.1894 21.8543 35.2879 21.4773C35.3865 21.1003 35.3721 20.7027 35.2465 20.3339C36.986 21.2789 38.4385 22.6756 39.451 24.3766C40.4635 26.0777 40.9986 28.0204 41 30ZM19 30C18.998 28.2772 19.4033 26.5783 20.1826 25.0419L21.4855 28.5194C21.6025 28.8338 21.797 29.1135 22.0509 29.3326C22.3049 29.5517 22.61 29.7032 22.9381 29.7728L23.6272 29.921L23.6329 29.9222L25.1396 30.2461C25.2882 30.278 25.4276 30.3434 25.5472 30.4373C25.6667 30.5312 25.7633 30.6512 25.8295 30.788L26.0926 31.3314C26.2563 31.6696 26.512 31.9549 26.8304 32.1545C27.1488 32.3541 27.517 32.46 27.8928 32.46H28.0314L27.0695 34.6184C26.9099 34.9757 26.8588 35.372 26.9225 35.7581C26.9862 36.1442 27.1619 36.5031 27.4277 36.7903L29.434 38.9603C29.5405 39.0756 29.6184 39.2142 29.6614 39.3652C29.7044 39.5161 29.7113 39.675 29.6815 39.8291L29.4576 40.9865C26.6388 40.844 23.9822 39.6248 22.0362 37.5804C20.0902 35.536 19.0033 32.8225 19 30Z" fill="#04471E"/>
</g>
<defs>
<filter id="filter0_n_828_641" x="0" y="0" width="60" height="60" filterUnits="userSpaceOnUse" color-interpolation-filters="sRGB">
<feFlood flood-opacity="0" result="BackgroundImageFix"/>
<feBlend mode="normal" in="SourceGraphic" in2="BackgroundImageFix" result="shape"/>
<feTurbulence type="fractalNoise" baseFrequency="0.083333335816860199 0.083333335816860199" stitchTiles="stitch" numOctaves="3" result="noise" seed="193" />
<feColorMatrix in="noise" type="luminanceToAlpha" result="alphaNoise" />
<feComponentTransfer in="alphaNoise" result="coloredNoise1">
<feFuncA type="discrete" tableValues="1 1 1 1 1 1 1 1 1 1 1 1 1 1 1 1 1 1 1 1 1 1 1 1 1 1 1 1 1 1 1 1 1 1 1 1 1 1 1 1 1 1 1 1 1 1 1 1 1 1 1 0 0 0 0 0 0 0 0 0 0 0 0 0 0 0 0 0 0 0 0 0 0 0 0 0 0 0 0 0 0 0 0 0 0 0 0 0 0 0 0 0 0 0 0 0 0 0 0 0 "/>
</feComponentTransfer>
<feComposite operator="in" in2="shape" in="coloredNoise1" result="noise1Clipped" />
<feComponentTransfer in="alphaNoise" result="coloredNoise2">
<feFuncA type="discrete" tableValues="0 0 0 0 0 0 0 0 0 0 0 0 0 0 0 0 0 0 0 0 0 0 0 0 0 0 0 0 0 0 0 0 0 0 0 0 0 0 0 0 0 0 0 0 0 0 0 0 0 1 1 1 1 1 1 1 1 1 1 1 1 1 1 1 1 1 1 1 1 1 1 1 1 1 1 1 1 1 1 1 1 1 1 1 1 1 1 1 1 1 1 1 1 1 1 1 1 1 1 1 "/>
</feComponentTransfer>
<feComposite operator="in" in2="shape" in="coloredNoise2" result="noise2Clipped" />
<feFlood flood-color="rgba(0, 0, 0, 0.25)" result="color1Flood" />
<feComposite operator="in" in2="noise1Clipped" in="color1Flood" result="color1" />
<feFlood flood-color="rgba(255, 255, 255, 0.25)" result="color2Flood" />
<feComposite operator="in" in2="noise2Clipped" in="color2Flood" result="color2" />
<feMerge result="effect1_noise_828_641">
<feMergeNode in="shape" />
<feMergeNode in="color1" />
<feMergeNode in="color2" />
</feMerge>
</filter>
</defs>
</svg>
