<svg width="50" height="50" viewBox="0 0 50 50" fill="none" xmlns="http://www.w3.org/2000/svg">
<rect width="50" height="50" rx="25" fill="#218448" fill-opacity="0.2"/>
<path d="M29.578 15.5C28.7039 15.5 27.9927 16.2111 27.9927 17.0852C27.9927 17.2895 28.0319 17.4846 28.1026 17.6641C27.4886 18.3723 27.0893 19.327 26.9056 20.0607C26.6719 20.0068 26.4289 19.9774 26.179 19.9774C25.9292 19.9774 25.6862 20.0068 25.4524 20.0607C25.2688 19.327 24.8695 18.3723 24.2554 17.6641C24.3261 17.4846 24.3653 17.2895 24.3653 17.0852C24.3653 16.2111 23.6542 15.5 22.7801 15.5C21.906 15.5 21.1949 16.2111 21.1949 17.0852C21.1949 17.9593 21.906 18.6705 22.7801 18.6705C23.0213 18.6705 23.2501 18.6161 23.455 18.5192C23.9536 19.142 24.2653 20.0151 24.3686 20.5332C23.7065 20.9824 23.2199 21.6706 23.0319 22.4727C22.2137 22.1313 21.3276 21.9533 20.4273 21.9533C17.2783 21.9533 14.5832 24.1019 13.9715 27.0796C13.7273 27.4645 13.5383 27.897 13.4117 28.3645C13.155 28.7191 13 29.1758 13 29.6738C13 30.1469 13.14 30.5826 13.374 30.9289C13.818 32.7899 15.2385 34.0797 16.8638 34.0797C17.06 34.0797 17.2535 34.0611 17.4432 34.0251C17.8657 34.2426 18.4649 34.5001 19.3325 34.5001H24.6365C26.4341 34.5001 27.6908 34.1152 28.4784 33.3236C29.425 32.372 29.4182 31.0822 29.4138 30.2288C29.4135 30.1708 29.4132 30.1141 29.4132 30.0589L29.4121 23.2106C29.4121 22.0982 28.8473 21.1153 27.9896 20.5333C28.0928 20.0152 28.4044 19.1421 28.9031 18.5194C29.108 18.6162 29.3367 18.6706 29.578 18.6706C30.4521 18.6706 31.1633 17.9595 31.1633 17.0853C31.1633 16.2112 30.452 15.5 29.578 15.5ZM22.7801 17.5072C22.5475 17.5072 22.3581 17.3179 22.3581 17.0852C22.3581 16.8525 22.5474 16.6632 22.7801 16.6632C23.0128 16.6632 23.2021 16.8525 23.2021 17.0852C23.2021 17.3179 23.0128 17.5072 22.7801 17.5072ZM14.1633 29.6737C14.1633 29.2069 14.4416 28.7973 14.7588 28.7973C15.076 28.7973 15.3544 29.2069 15.3544 29.6737C15.3544 30.1406 15.0761 30.5501 14.7588 30.5501C14.4416 30.5501 14.1633 30.1405 14.1633 29.6737ZM16.8638 32.9162C16.0963 32.9163 15.3902 32.4506 14.9312 31.7034C15.8204 31.6026 16.5177 30.7309 16.5177 29.6737C16.5177 28.6398 15.8507 27.7836 14.9895 27.6522C15.4517 26.9571 16.1355 26.5253 16.8638 26.5253C18.2247 26.5253 19.3318 27.9588 19.3318 29.7208C19.3318 31.4827 18.2246 32.9162 16.8638 32.9162ZM22.3497 32.503C21.7994 33.0562 20.7843 33.3367 19.3324 33.3367C19.1874 33.3367 19.0544 33.3267 18.9306 33.3097C19.1237 33.1489 19.3053 32.9643 19.4727 32.757C20.1319 31.9405 20.495 30.8623 20.495 29.7208C20.495 28.5794 20.132 27.5011 19.4727 26.6846C18.7841 25.8318 17.8576 25.3621 16.8638 25.3621C16.5154 25.3621 16.1755 25.4201 15.8505 25.5323C16.8196 24.0643 18.522 23.1165 20.4273 23.1165C21.3088 23.1165 22.1726 23.3223 22.9459 23.7134V30.0588C22.9459 30.1159 22.9462 30.1745 22.9465 30.2347C22.9506 31.0126 22.9552 31.8943 22.3497 32.503ZM28.2489 23.2105L28.2499 30.0588C28.2499 30.1159 28.2502 30.1746 28.2505 30.2347C28.2546 31.0127 28.2592 31.8943 27.6537 32.503C27.1034 33.0562 26.0882 33.3367 24.6365 33.3367H23.1611C23.1656 33.3322 23.17 33.3278 23.1744 33.3234C24.121 32.3718 24.1143 31.0821 24.1098 30.2286C24.1095 30.1706 24.1092 30.1139 24.1092 30.0587V23.2104C24.1092 22.0691 25.0377 21.1406 26.179 21.1406C27.3204 21.1406 28.2489 22.0691 28.2489 23.2105ZM29.578 17.5072C29.3453 17.5072 29.156 17.3179 29.156 17.0852C29.156 16.8525 29.3453 16.6632 29.578 16.6632C29.8106 16.6632 29.9999 16.8525 29.9999 17.0852C29.9999 17.3179 29.8106 17.5072 29.578 17.5072Z" fill="#218448"/>
</svg>
