<svg width="50" height="50" viewBox="0 0 50 50" fill="none" xmlns="http://www.w3.org/2000/svg">
<rect width="50" height="50" rx="25" fill="#218448" fill-opacity="0.2"/>
<path d="M30 34.999C28.6167 34.999 27.4375 34.5115 26.4625 33.5365C25.4875 32.5615 25 31.3824 25 29.999C25 28.6157 25.4875 27.4365 26.4625 26.4615C27.4375 25.4865 28.6167 24.999 30 24.999C31.3833 24.999 32.5625 25.4865 33.5375 26.4615C34.5125 27.4365 35 28.6157 35 29.999C35 31.3824 34.5125 32.5615 33.5375 33.5365C32.5625 34.5115 31.3833 34.999 30 34.999ZM31.675 32.374L32.375 31.674L30.5 29.799V26.999H29.5V30.199L31.675 32.374ZM18 33.999C17.45 33.999 16.9792 33.8032 16.5875 33.4115C16.1958 33.0199 16 32.549 16 31.999V17.999C16 17.449 16.1958 16.9782 16.5875 16.5865C16.9792 16.1949 17.45 15.999 18 15.999H22.175C22.3583 15.4157 22.7167 14.9365 23.25 14.5615C23.7833 14.1865 24.3667 13.999 25 13.999C25.6667 13.999 26.2625 14.1865 26.7875 14.5615C27.3125 14.9365 27.6667 15.4157 27.85 15.999H32C32.55 15.999 33.0208 16.1949 33.4125 16.5865C33.8042 16.9782 34 17.449 34 17.999V24.249C33.7 24.0324 33.3833 23.849 33.05 23.699C32.7167 23.549 32.3667 23.4157 32 23.299V17.999H30V20.999H20V17.999H18V31.999H23.3C23.4167 32.3657 23.55 32.7157 23.7 33.049C23.85 33.3824 24.0333 33.699 24.25 33.999H18ZM25 17.999C25.2833 17.999 25.5208 17.9032 25.7125 17.7115C25.9042 17.5199 26 17.2824 26 16.999C26 16.7157 25.9042 16.4782 25.7125 16.2865C25.5208 16.0949 25.2833 15.999 25 15.999C24.7167 15.999 24.4792 16.0949 24.2875 16.2865C24.0958 16.4782 24 16.7157 24 16.999C24 17.2824 24.0958 17.5199 24.2875 17.7115C24.4792 17.9032 24.7167 17.999 25 17.999Z" fill="#218448"/>
</svg>
