<svg width="31" height="40" viewBox="0 0 31 40" fill="none" xmlns="http://www.w3.org/2000/svg">
<path d="M16.0318 1.83398C17.4022 1.83366 18.7646 2.03465 20.0721 2.43002C22.4125 3.14395 24.5062 4.45909 26.1275 6.23371C27.7486 8.00836 28.836 10.1751 29.2721 12.5006C29.4305 13.305 29.5003 14.1234 29.4802 14.9419C29.4386 15.8327 29.2758 16.7144 28.9959 17.5645C28.5389 18.9867 27.9627 20.3708 27.2731 21.7033C26.8602 22.5179 26.4275 23.3202 25.9751 24.1101C25.4933 24.9445 25.004 25.7647 24.4888 26.5753C24.0949 27.1963 23.7023 27.8186 23.2972 28.4337C22.7192 29.3079 22.1297 30.1745 21.5286 31.0336C20.6079 32.3465 19.6637 33.6434 18.696 34.9245C17.8525 36.039 16.9991 37.1453 16.121 38.2349C16.0417 38.3338 16.0058 38.3362 15.9253 38.2349C14.6041 36.5874 13.3243 34.913 12.0857 33.2115C10.7951 31.4484 9.54664 29.6579 8.36008 27.8293C7.03999 25.8278 5.83433 23.7585 4.74842 21.6306C4.0456 20.2766 3.46545 18.8667 3.01441 17.4167C2.75237 16.6031 2.60288 15.7598 2.56977 14.9086C2.55437 13.906 2.66542 12.9052 2.90047 11.9284C3.38226 9.89687 4.36463 8.00669 5.76471 6.41726C7.16477 4.82786 8.94148 3.58584 10.945 2.79598C12.1896 2.30351 13.5054 1.99834 14.8465 1.8912C15.2416 1.85544 15.6355 1.83398 16.0318 1.83398ZM21.0492 8.28899C21.0143 8.25612 20.9775 8.22511 20.9391 8.19602C19.0514 6.91811 16.9644 6.43296 14.6843 6.77747C12.5923 7.09335 10.8731 8.0625 9.51568 9.61938C8.8556 10.3777 8.3512 11.2499 8.02937 12.1894C7.63007 13.3246 7.49768 14.5311 7.64174 15.7215C7.76226 16.7814 8.10437 17.8069 8.64741 18.7363C9.48172 20.1808 10.7549 21.3455 12.2963 22.074C14.0018 22.8857 15.9428 23.117 17.8025 22.7301C19.6621 22.3432 21.3306 21.361 22.5355 19.9438C24.0392 18.1629 24.6498 16.1197 24.3934 13.8429C24.2568 12.6216 23.8227 11.4486 23.1264 10.4192C22.8798 10.0316 22.589 9.67179 22.2594 9.34637C22.0736 8.68957 21.681 8.35217 21.0492 8.28899Z" fill="#8465DC"/>
<path d="M16.0084 1.82031C17.3788 1.81999 18.7412 2.02098 20.0486 2.41635C22.3891 3.13028 24.4828 4.44542 26.104 6.22004C27.7252 7.99468 28.8125 10.1615 29.2487 12.4869C29.407 13.2914 29.4768 14.1097 29.4568 14.9283C29.4151 15.8191 29.2523 16.7007 28.9725 17.5508C28.5155 18.973 27.9393 20.3571 27.2496 21.6896C26.8368 22.5042 26.4041 23.3065 25.9516 24.0964C25.4698 24.9308 24.9806 25.751 24.4653 26.5616C24.0714 27.1827 23.6789 27.8049 23.2738 28.4201C22.6958 29.2942 22.1063 30.1608 21.5051 31.02C20.5845 32.3328 19.6403 33.6297 18.6725 34.9108C17.8291 36.0254 16.9757 37.1316 16.0975 38.2212C16.0182 38.3201 15.9823 38.3225 15.9019 38.2212C14.5807 36.5738 13.3009 34.8993 12.0622 33.1978C10.7717 31.4348 9.52323 29.6443 8.33666 27.8157C7.01658 25.8141 5.81089 23.7448 4.72497 21.6169C4.02216 20.2629 3.44201 18.853 2.99097 17.403C2.72894 16.5894 2.57944 15.7461 2.54633 14.8949C2.53093 13.8923 2.64198 12.8916 2.87703 11.9147C3.35881 9.88319 4.34118 7.99301 5.74127 6.4036C7.14136 4.81419 8.91807 3.57216 10.9215 2.78231C12.1661 2.28983 13.482 1.98466 14.8231 1.87753C15.2182 1.84177 15.612 1.82031 16.0084 1.82031ZM21.0258 8.27531C20.9909 8.24244 20.954 8.21143 20.9156 8.18234C19.028 6.9045 16.941 6.41928 14.6608 6.7638C12.5689 7.07967 10.8497 8.04882 9.49227 9.6057C8.83219 10.3641 8.32779 11.2362 8.00596 12.1757C7.60659 13.311 7.4742 14.5174 7.61827 15.7078C7.73878 16.7678 8.08089 17.7932 8.624 18.7226C9.4583 20.1672 10.7315 21.3318 12.2728 22.0604C13.9784 22.8721 15.9194 23.1033 17.779 22.7164C19.6387 22.3295 21.3072 21.3473 22.5121 19.9302C24.0157 18.1492 24.6264 16.106 24.37 13.8292C24.2334 12.6079 23.7993 11.4349 23.1029 10.4056C22.8564 10.0179 22.5656 9.65811 22.2359 9.33269C22.0501 8.67589 21.6575 8.33849 21.0258 8.27531Z" fill="#218448"/>
<path d="M21.0498 8.2879C21.6777 8.34518 22.0704 8.68847 22.2661 9.35008C22.3552 9.88527 22.1645 10.3407 21.8437 10.7614C21.3329 11.4124 20.709 11.9734 19.9995 12.4196C19.5524 12.7117 19.0891 12.9787 18.5529 13.086C18.0933 13.1789 17.6301 13.2481 17.1681 13.3244C17.1359 13.3303 17.0963 13.3244 17.0975 13.3792C17.2957 13.3792 17.4939 13.3852 17.6908 13.3792C17.8877 13.3733 18.0723 13.3494 18.2903 13.3316L18.1329 13.4054C16.9159 13.9607 15.8858 14.8344 15.1604 15.9267C14.5696 16.8255 14.2822 17.7851 14.4903 18.8579C14.847 20.7021 16.6987 22.0658 18.6395 21.9072C18.8687 21.8882 19.0929 21.8393 19.3591 21.8059C16.8015 23.0314 12.6386 22.9134 9.87048 19.8307C8.57261 18.3754 7.88264 16.5081 7.93435 14.591C7.98607 12.6737 8.7758 10.8434 10.1503 9.45496C13.0809 6.50939 17.401 6.47479 20.1828 8.19377C20.0809 8.32128 20.0209 8.47518 20.0105 8.6358C20.0001 8.79637 20.0398 8.95629 20.1246 9.09494C20.262 9.33335 20.5209 9.34527 20.7699 9.34412C20.7309 9.32586 20.689 9.31381 20.646 9.3083C20.2199 9.23084 20.0689 9.00915 20.189 8.52156C20.2032 8.44468 20.2481 8.37612 20.314 8.3305C20.3799 8.28488 20.4617 8.26573 20.542 8.27719L21.0498 8.2879ZM19.0681 10.4706C19.0681 10.4563 19.0681 10.442 19.0681 10.4277C19.1263 10.1988 19.0755 9.9437 19.239 9.73745C19.2498 9.7208 19.2534 9.70074 19.249 9.68158C19.2446 9.66243 19.2325 9.6457 19.2155 9.63494C19.208 9.62642 19.1988 9.61937 19.1884 9.61437C19.178 9.60937 19.1668 9.60643 19.1551 9.60572C19.1435 9.60508 19.1319 9.60668 19.121 9.61046C19.1101 9.61424 19.1001 9.62014 19.0916 9.62783C19.0569 9.65525 19.0248 9.68979 19.0544 9.73745C19.0823 9.77609 19.0942 9.82325 19.0879 9.86976C19.0619 10.0665 19.0433 10.2655 19.0223 10.4658C18.987 10.7126 18.987 10.9629 19.0223 11.2097C19.0223 11.2097 19.0223 11.2168 19.0284 11.2204L19.0173 11.2037L19.0681 10.4706ZM18.6482 11.4409C18.6551 11.2515 18.6808 11.063 18.725 10.8783C18.7498 10.7686 18.7362 10.6398 18.8489 10.56C18.8577 10.5526 18.8649 10.5435 18.8698 10.5332C18.8747 10.5229 18.8772 10.5117 18.8772 10.5004C18.8772 10.4891 18.8747 10.4779 18.8698 10.4676C18.8649 10.4573 18.8577 10.4482 18.8489 10.4408C18.8424 10.4314 18.834 10.4233 18.8242 10.417C18.8145 10.4107 18.8036 10.4064 18.7921 10.4041C18.7805 10.4019 18.7687 10.4019 18.7572 10.4041C18.7457 10.4063 18.7348 10.4107 18.725 10.4169C18.6816 10.4396 18.6507 10.4837 18.6767 10.5218C18.7262 10.5993 18.6903 10.6685 18.6767 10.74C18.6328 10.9681 18.6092 11.1994 18.6061 11.4314C18.5578 11.6198 18.6148 11.8021 18.6395 11.9857L18.6482 11.4409ZM17.5199 11.6412C17.5763 11.4996 17.6416 11.3615 17.7155 11.2276C17.8258 11.05 17.8716 10.827 18.0872 10.721C18.0959 10.7158 18.1034 10.7091 18.1094 10.7011C18.1152 10.6931 18.1194 10.684 18.1215 10.6743C18.1236 10.6647 18.1236 10.6548 18.1215 10.6452C18.1195 10.6355 18.1153 10.6265 18.1094 10.6184C18.0859 10.5803 18.0525 10.5492 18.0017 10.5624C17.9509 10.5755 17.915 10.6017 17.9237 10.6506C17.9326 10.6966 17.9224 10.7441 17.8952 10.7829C17.7304 11.0581 17.5908 11.3464 17.4777 11.6448C17.4227 11.7387 17.3965 11.8458 17.4022 11.9535C17.4356 11.8486 17.4753 11.7449 17.5137 11.6412H17.5199ZM12.0082 11.1882C11.9389 11.0535 11.867 10.92 11.8026 10.7841C11.6377 10.4647 11.5177 10.1255 11.4459 9.77564C11.389 9.43472 11.5017 9.23206 11.8336 9.09616C11.9994 9.03439 12.1731 8.99429 12.35 8.97692C12.5705 8.94835 12.7935 8.96263 13.0152 8.94117C12.6779 8.78855 12.3011 8.73588 11.9327 8.78977C11.2676 8.88517 10.9864 9.31426 11.1635 9.94133C11.3072 10.4297 11.6018 10.8646 12.0082 11.1882ZM16.5712 8.95668C16.5693 9.05714 16.6081 9.1544 16.6793 9.22796C16.7504 9.30151 16.8483 9.34572 16.9526 9.35123C17.0068 9.35514 17.0613 9.34841 17.1127 9.33137C17.1642 9.31439 17.2115 9.28754 17.2518 9.25237C17.2922 9.21726 17.3246 9.17465 17.3473 9.12704C17.3699 9.0795 17.3823 9.02799 17.3836 8.97564C17.385 8.92329 17.3753 8.87127 17.3551 8.8227C17.3349 8.77407 17.3046 8.72993 17.2662 8.69296C17.2277 8.65592 17.1818 8.62683 17.1313 8.60742C17.0808 8.58801 17.0268 8.57865 16.9724 8.58C16.8682 8.58115 16.7684 8.62094 16.6939 8.6911C16.6194 8.76126 16.5759 8.8564 16.5724 8.95668H16.5712ZM20.7637 8.98884C20.8578 8.97577 21.0176 9.00076 21.03 8.85416C21.0424 8.7075 20.8863 8.69443 20.7724 8.67175C20.6126 8.6408 20.4429 8.7075 20.4281 8.79099C20.4132 8.87441 20.5519 8.96981 20.7303 8.98051L20.7637 8.98884ZM18.3064 10.7555C18.3609 10.5874 18.4067 10.4158 18.4748 10.2512C18.5429 10.0868 18.5268 9.92108 18.6916 9.81851C18.7312 9.79467 18.7225 9.73867 18.6916 9.69933C18.6797 9.6837 18.663 9.67216 18.6438 9.6664C18.6247 9.66063 18.604 9.66089 18.585 9.66717C18.538 9.68383 18.5057 9.72195 18.5231 9.76609C18.5565 9.8531 18.5107 9.92461 18.4897 10.0045C18.404 10.2486 18.343 10.5001 18.3076 10.7555H18.3064ZM19.4087 10.9033C19.3901 10.8378 19.4261 10.7293 19.4161 10.6232C19.384 10.4838 19.4014 10.3382 19.4656 10.2095C19.471 10.2001 19.4743 10.1897 19.4754 10.179C19.4764 10.1684 19.4752 10.1576 19.4719 10.1473C19.4686 10.1371 19.4631 10.1277 19.4558 10.1195C19.4486 10.1113 19.4397 10.1046 19.4297 10.0998C19.4116 10.0862 19.3888 10.0796 19.3659 10.0813C19.3429 10.0831 19.3215 10.0931 19.3059 10.1094C19.2712 10.1428 19.2526 10.1869 19.291 10.2286C19.3294 10.2703 19.3282 10.3407 19.3393 10.4003C19.3715 10.5779 19.3158 10.7734 19.4099 10.9033H19.4087ZM18.1825 11.2502C18.234 11.1222 18.2633 10.9869 18.2692 10.8497C18.2115 10.9758 18.1823 11.1124 18.1837 11.2502H18.1825ZM17.3155 12.1514C17.3217 12.143 17.3316 12.1371 17.3316 12.13C17.3316 12.1228 17.3539 12.0834 17.318 12.0847C17.313 12.0847 17.3031 12.1264 17.3217 12.1514H17.3155ZM17.344 12.0322C17.3551 12.0251 17.3638 12.0215 17.365 12.0179C17.3675 12.0101 17.3675 12.0018 17.365 11.9941C17.365 11.9809 17.3514 11.9809 17.3477 11.9941C17.3473 12.0068 17.3481 12.0196 17.3502 12.0322H17.344Z" fill="#191F1C"/>
<path d="M21.0485 8.28785L20.5457 8.27715C20.4654 8.26568 20.3836 8.28484 20.3177 8.33045C20.2518 8.37607 20.2069 8.44457 20.1927 8.52152C20.0688 9.00904 20.2237 9.23079 20.6497 9.30825C20.6927 9.31376 20.7345 9.32581 20.7736 9.34401C20.5259 9.34401 20.2658 9.32972 20.1282 9.0949C20.0435 8.95618 20.0038 8.79632 20.0141 8.63576C20.0245 8.47513 20.0845 8.32123 20.1865 8.19373C17.4009 6.47 13.0808 6.50934 10.1541 9.45491C8.77859 10.843 7.98799 12.6733 7.93555 14.5908C7.88316 16.5083 8.57274 18.3761 9.8704 19.8318C12.6386 22.9145 16.8064 23.0325 19.3591 21.8071C19.0928 21.8404 18.8637 21.8893 18.6395 21.9084C16.6987 22.0669 14.847 20.7032 14.4903 18.8591C14.2822 17.7862 14.5696 16.8326 15.1604 15.9278C15.8858 14.8356 16.9159 13.9618 18.1329 13.4066L18.2902 13.3327C18.0723 13.3505 17.8815 13.372 17.6908 13.3804C17.5 13.3887 17.2957 13.3804 17.0975 13.3804C17.0975 13.3231 17.1359 13.3315 17.1681 13.3256C17.6301 13.2469 18.0933 13.1777 18.5528 13.0871C19.0891 12.9798 19.5523 12.7128 19.9995 12.4207C20.7089 11.9745 21.3329 11.4135 21.8437 10.7626C22.1645 10.3418 22.3552 9.88644 22.266 9.35118C22.5957 9.6766 22.8865 10.0364 23.133 10.4241C23.8259 11.4523 24.2574 12.6231 24.3927 13.8417C24.6404 16.1185 24.0347 18.1618 22.5348 19.9427C21.3268 21.3565 19.6581 22.3362 17.7992 22.7231C15.9402 23.11 14 22.8813 12.293 22.0741C10.7517 21.3455 9.47851 20.1809 8.6442 18.7363C8.1011 17.807 7.75905 16.7815 7.63854 15.7216C7.4944 14.5311 7.62686 13.3247 8.02616 12.1895C8.34799 11.2499 8.85239 10.3778 9.51247 9.61939C10.8749 8.06257 12.5891 7.09342 14.681 6.77755C16.9612 6.43303 19.0482 6.91819 20.9358 8.1961C20.9751 8.22467 21.0127 8.25536 21.0485 8.28785Z" fill="#FEFEFE"/>
<path d="M12.0079 11.1866C11.6015 10.863 11.3069 10.4281 11.1632 9.93969C10.9861 9.31261 11.2673 8.88353 11.9323 8.78812C12.3008 8.73424 12.6776 8.78691 13.0149 8.93953C12.7931 8.96099 12.5702 8.9467 12.3497 8.97528C12.1728 8.99264 11.9991 9.03275 11.8333 9.09451C11.5014 9.23041 11.3886 9.43307 11.4456 9.774C11.5174 10.1239 11.6374 10.463 11.8023 10.7825C11.868 10.9184 11.9398 11.0518 12.0079 11.1866Z" fill="#FEFEFE"/>
<path d="M16.5723 8.95493C16.5759 8.85447 16.6196 8.75919 16.6943 8.68897C16.7691 8.61875 16.8692 8.57908 16.9736 8.57825C17.028 8.57691 17.0821 8.58626 17.1326 8.60567C17.1831 8.62509 17.2289 8.65418 17.2674 8.69121C17.3059 8.72818 17.3361 8.77233 17.3563 8.82096C17.3765 8.86952 17.3862 8.92155 17.3849 8.9739C17.3835 9.02624 17.3711 9.07776 17.3484 9.1253C17.3258 9.1729 17.2933 9.21551 17.253 9.25062C17.2127 9.2858 17.1654 9.31264 17.114 9.32962C17.0625 9.34666 17.0081 9.35339 16.9538 9.34948C16.8496 9.34397 16.7516 9.29976 16.6804 9.22621C16.6093 9.15266 16.5706 9.05539 16.5723 8.95493Z" fill="#FEFEFE"/>
<path d="M20.7647 8.98707H20.7312C20.5492 8.97637 20.4129 8.89173 20.429 8.79754C20.4452 8.70336 20.6136 8.64255 20.7733 8.67837C20.8873 8.70099 21.0421 8.71886 21.031 8.86072C21.0198 9.00257 20.8588 8.974 20.7647 8.98707Z" fill="#FEFEFE"/>
<path d="M17.4727 11.6472C17.5857 11.3488 17.7254 11.0604 17.89 10.7853C17.9173 10.7465 17.9275 10.699 17.9185 10.653C17.9099 10.6041 17.952 10.5755 17.9966 10.5648C18.0412 10.5541 18.0808 10.5826 18.1044 10.6208C18.1102 10.6288 18.1144 10.6379 18.1165 10.6475C18.1185 10.6572 18.1185 10.6671 18.1164 10.6767C18.1143 10.6864 18.1102 10.6955 18.1042 10.7035C18.0984 10.7115 18.0908 10.7182 18.0821 10.7233C17.8653 10.8294 17.8195 11.0524 17.7105 11.23C17.6368 11.3636 17.5714 11.5013 17.5148 11.6424L17.4727 11.6472Z" fill="#FEFEFE"/>
<path d="M18.3066 10.7539C18.3427 10.4976 18.4045 10.2453 18.4911 10.0005C18.5122 9.92541 18.5581 9.85385 18.5246 9.76209C18.5073 9.71795 18.5395 9.67983 18.5866 9.6631C18.6055 9.65683 18.6261 9.65657 18.6453 9.6624C18.6644 9.66817 18.6812 9.6797 18.6931 9.69533C18.7228 9.73224 18.7314 9.7883 18.6931 9.81451C18.5283 9.91702 18.537 10.0994 18.4763 10.2472C18.4156 10.3951 18.3611 10.5858 18.3066 10.7539Z" fill="#FEFEFE"/>
<path d="M18.6094 11.4391C18.6124 11.2071 18.6361 10.9758 18.68 10.7477C18.6924 10.6762 18.7283 10.6071 18.68 10.5295C18.654 10.4914 18.68 10.4473 18.7283 10.4247C18.738 10.4184 18.749 10.414 18.7605 10.4118C18.772 10.4096 18.7839 10.4096 18.7953 10.4118C18.8068 10.414 18.8178 10.4184 18.8275 10.4247C18.8373 10.431 18.8457 10.4391 18.8521 10.4485C18.8611 10.4559 18.8682 10.465 18.8731 10.4753C18.878 10.4856 18.8805 10.4968 18.8805 10.5081C18.8805 10.5194 18.878 10.5306 18.8731 10.5409C18.8682 10.5512 18.8611 10.5603 18.8521 10.5677C18.7283 10.6488 18.7481 10.7763 18.7283 10.886C18.6839 11.0707 18.6586 11.2591 18.6527 11.4486C18.6329 11.4367 18.6243 11.4236 18.6094 11.4391Z" fill="#FEFEFE"/>
<path d="M19.4097 10.9012C19.318 10.7713 19.3713 10.5758 19.3415 10.3934C19.3304 10.3338 19.3415 10.2742 19.2932 10.2217C19.245 10.1693 19.2734 10.1407 19.3081 10.1026C19.3237 10.0863 19.3451 10.0762 19.3681 10.0745C19.3911 10.0727 19.4139 10.0793 19.432 10.093C19.442 10.0978 19.4508 10.1045 19.4581 10.1126C19.4653 10.1208 19.4708 10.1303 19.4741 10.1405C19.4775 10.1508 19.4787 10.1615 19.4776 10.1722C19.4765 10.1829 19.4733 10.1932 19.4679 10.2027C19.4037 10.3313 19.3862 10.477 19.4183 10.6163C19.427 10.7332 19.3911 10.8357 19.4097 10.9012Z" fill="#FEFEFE"/>
<path d="M19.0234 10.4657C19.0445 10.2678 19.0631 10.0687 19.0891 9.86965C19.0954 9.82307 19.0834 9.77591 19.0557 9.73734C19.0259 9.68967 19.0557 9.65507 19.0928 9.62765C19.1013 9.62002 19.1113 9.61413 19.1222 9.61035C19.1331 9.60657 19.1447 9.60497 19.1563 9.60561C19.1679 9.60631 19.1792 9.60919 19.1896 9.61426C19.2 9.61925 19.2092 9.62624 19.2167 9.63482C19.2337 9.64559 19.2457 9.66231 19.2501 9.68147C19.2545 9.70062 19.251 9.72068 19.2402 9.73734C19.0767 9.94359 19.1275 10.1987 19.0693 10.4275C19.0693 10.4419 19.0693 10.4562 19.0693 10.4704L19.0234 10.4657Z" fill="#FEFEFE"/>
<path d="M19.0241 10.4609L19.0638 10.468C19.0485 10.7172 19.0331 10.9652 19.0177 11.1988L19.0292 11.2155C19.0292 11.2155 19.0228 11.2083 19.0228 11.2047C18.9868 10.9579 18.9872 10.7077 19.0241 10.4609Z" fill="#8465DC"/>
<path d="M18.6093 11.4364C18.6247 11.4209 18.6336 11.4364 18.6452 11.4423C18.6452 11.6247 18.6452 11.8083 18.6452 11.9907C18.6183 11.8095 18.5593 11.6247 18.6093 11.4364Z" fill="#8465DC"/>
<path d="M18.1836 11.2521C18.1826 11.1141 18.2128 10.9776 18.2721 10.8516C18.2661 10.9887 18.2362 11.1241 18.1836 11.2521Z" fill="#8465DC"/>
<path d="M17.4737 11.6445H17.515C17.4762 11.7495 17.4362 11.8531 17.3975 11.9581C17.3908 11.8487 17.4173 11.7399 17.4737 11.6445Z" fill="#8465DC"/>
<path d="M17.3212 12.1507C17.3024 12.1257 17.3124 12.084 17.3212 12.084C17.3576 12.084 17.335 12.1126 17.335 12.1293C17.335 12.1459 17.3337 12.1424 17.3212 12.1507Z" fill="#8465DC"/>
<path d="M17.3506 12.0304C17.3493 12.0177 17.3493 12.005 17.3506 11.9923C17.3506 11.9791 17.3631 11.9791 17.3681 11.9923C17.3706 12 17.3706 12.0084 17.3681 12.0161C17.3681 12.0161 17.3618 12.0233 17.3506 12.0304Z" fill="#8465DC"/>
</svg>
