<svg width="50" height="50" viewBox="0 0 50 50" fill="none" xmlns="http://www.w3.org/2000/svg">
<rect width="50" height="50" rx="25" fill="#218448" fill-opacity="0.2"/>
<path d="M16 30.001V20.001C16 19.451 16.1958 18.9801 16.5875 18.5885C16.9792 18.1968 17.45 18.001 18 18.001H32C32.55 18.001 33.0208 18.1968 33.4125 18.5885C33.8042 18.9801 34 19.451 34 20.001V30.001C34 30.551 33.8042 31.0218 33.4125 31.4135C33.0208 31.8051 32.55 32.001 32 32.001H18C17.45 32.001 16.9792 31.8051 16.5875 31.4135C16.1958 31.0218 16 30.551 16 30.001ZM23.325 24.001H32V20.001H23.325V24.001ZM28.675 30.001H32V26.001H28.675V30.001ZM23.325 30.001H26.675V26.001H23.325V30.001ZM18 30.001H21.325V20.001H18V30.001Z" fill="#218448"/>
</svg>
