<svg width="24" height="24" viewBox="0 0 24 24" fill="none" xmlns="http://www.w3.org/2000/svg">
<g clip-path="url(#clip0_920_3187)">
<path fill-rule="evenodd" clip-rule="evenodd" d="M21.4613 4.65844C21.2792 4.51659 21.042 4.46645 20.8181 4.5225L15.0872 5.955L9.33562 3.07875C9.17537 2.99882 8.99181 2.97887 8.81812 3.0225L2.81813 4.5225C2.48428 4.60595 2.25005 4.90588 2.25 5.25V18.75C2.25004 18.9809 2.35645 19.199 2.53847 19.3411C2.7205 19.4832 2.95784 19.5335 3.18187 19.4775L8.91281 18.045L14.6644 20.9212C14.7688 20.9727 14.8836 20.9997 15 21C15.0613 21 15.1224 20.9924 15.1819 20.9775L21.1819 19.4775C21.5157 19.3941 21.7499 19.0941 21.75 18.75V5.25C21.7501 5.01885 21.6435 4.80059 21.4613 4.65844ZM9.75 4.96313L14.25 7.21313V19.0369L9.75 16.7869V4.96313ZM3.75 5.83594L8.25 4.71094V16.6641L3.75 17.7891V5.83594ZM20.25 18.1641L15.75 19.2891V7.33594L20.25 6.21094V18.1641Z" fill="#121417"/>
</g>
<defs>
<clipPath id="clip0_920_3187">
<rect width="24" height="24" fill="white"/>
</clipPath>
</defs>
</svg>
