<svg width="60" height="60" viewBox="0 0 60 60" fill="none" xmlns="http://www.w3.org/2000/svg">
<rect width="60" height="60" rx="30" fill="#218448" fill-opacity="0.2"/>
<path d="M22 39.0002C21.45 39.0002 20.9792 38.8044 20.5875 38.4127C20.1958 38.021 20 37.5502 20 37.0002V21.6002C20 21.4835 20.05 21.4044 20.15 21.3627C20.25 21.321 20.3417 21.3419 20.425 21.4252L21.675 22.6752L22.975 21.3502C23.075 21.2502 23.1917 21.2002 23.325 21.2002C23.4583 21.2002 23.575 21.2502 23.675 21.3502L25 22.6752L26.325 21.3502C26.425 21.2502 26.5417 21.2002 26.675 21.2002C26.8083 21.2002 26.925 21.2502 27.025 21.3502L28.325 22.6752L29.65 21.3502C29.75 21.2502 29.8667 21.2002 30 21.2002C30.1333 21.2002 30.25 21.2502 30.35 21.3502L31.675 22.6752L32.975 21.3502C33.075 21.2502 33.1917 21.2002 33.325 21.2002C33.4583 21.2002 33.575 21.2502 33.675 21.3502L35 22.6752L36.325 21.3502C36.425 21.2502 36.5417 21.2002 36.675 21.2002C36.8083 21.2002 36.925 21.2502 37.025 21.3502L38.325 22.6752L39.575 21.4252C39.6583 21.3419 39.75 21.321 39.85 21.3627C39.95 21.4044 40 21.4835 40 21.6002V37.0002C40 37.5502 39.8042 38.021 39.4125 38.4127C39.0208 38.8044 38.55 39.0002 38 39.0002H22ZM22 37.0002H29V31.0002H22V37.0002ZM31 37.0002H38V35.0002H31V37.0002ZM31 33.0002H38V31.0002H31V33.0002ZM22 29.0002H38V26.0002H22V29.0002Z" fill="#218448"/>
</svg>
