<svg width="60" height="60" viewBox="0 0 60 60" fill="none" xmlns="http://www.w3.org/2000/svg">
<rect width="60" height="60" rx="30" fill="#218448" fill-opacity="0.2"/>
<g clip-path="url(#clip0_750_740)">
<path d="M24 33.0002C23.17 33.0002 22.42 33.3402 21.88 33.8802C20.7 35.0602 20 40.0002 20 40.0002C20 40.0002 24.94 39.3002 26.12 38.1202C26.66 37.5802 27 36.8302 27 36.0002C27 34.3402 25.66 33.0002 24 33.0002ZM24.71 36.7102C24.43 36.9902 22.54 37.4702 22.54 37.4702C22.54 37.4702 23.01 35.5902 23.3 35.3002C23.47 35.1102 23.72 35.0002 24 35.0002C24.55 35.0002 25 35.4502 25 36.0002C25 36.2802 24.89 36.5302 24.71 36.7102ZM35.42 31.6502C41.78 25.2902 39.66 20.3402 39.66 20.3402C39.66 20.3402 34.71 18.2202 28.35 24.5802L25.86 24.0802C25.21 23.9502 24.53 24.1602 24.05 24.6302L20 28.6902L25 30.8302L29.17 35.0002L31.31 40.0002L35.36 35.9502C35.83 35.4802 36.04 34.8002 35.91 34.1402L35.42 31.6502ZM25.41 28.8302L23.5 28.0102L25.47 26.0402L26.91 26.3302C26.34 27.1602 25.83 28.0302 25.41 28.8302ZM31.99 36.5002L31.17 34.5902C31.97 34.1702 32.84 33.6602 33.66 33.0902L33.95 34.5302L31.99 36.5002ZM34 30.2402C32.68 31.5602 30.62 32.6402 29.96 32.9702L27.03 30.0402C27.35 29.3902 28.43 27.3302 29.76 26.0002C34.44 21.3202 37.99 22.0102 37.99 22.0102C37.99 22.0102 38.68 25.5602 34 30.2402ZM33 29.0002C34.1 29.0002 35 28.1002 35 27.0002C35 25.9002 34.1 25.0002 33 25.0002C31.9 25.0002 31 25.9002 31 27.0002C31 28.1002 31.9 29.0002 33 29.0002Z" fill="#218448"/>
</g>
<defs>
<clipPath id="clip0_750_740">
<rect width="24" height="24" fill="white" transform="translate(18 18)"/>
</clipPath>
</defs>
</svg>
