<svg width="60" height="60" viewBox="0 0 60 60" fill="none" xmlns="http://www.w3.org/2000/svg">
<rect width="60" height="60" rx="30" fill="#218448" fill-opacity="0.2"/>
<path d="M41 30C41 30.3545 40.9832 30.7051 40.9504 31.051C40.3838 30.4841 39.7204 30.014 38.9871 29.6675C38.8122 24.8548 34.8555 21.0068 30 21.0068C25.0332 21.0068 21.0068 25.0332 21.0068 30C21.0068 34.8555 24.8548 38.8122 29.6675 38.9871C30.014 39.7204 30.4841 40.3838 31.051 40.9504C30.7051 40.9832 30.3545 41 30 41C23.9249 41 19 36.0751 19 30C19 23.9249 23.9249 19 30 19C36.0751 19 41 23.9249 41 30Z" fill="#218448"/>
<path d="M31 29.8812L31.8426 30.3677C31.2847 30.7802 30.7902 31.2737 30.3766 31.8307L29.5174 31.3346C29.3437 31.2343 29.2115 31.0898 29.1267 30.9235C29 30.7274 29 30.4667 29 30.4667V24C29 23.4477 29.4477 23 30 23C30.5523 23 31 23.4477 31 24V29.8812Z" fill="#218448"/>
<path d="M33.2929 35.7071C33.6834 35.3166 34.3166 35.3166 34.7071 35.7071L35.3482 36.3482L37.2473 34.4491C37.6379 34.0586 38.271 34.0586 38.6615 34.4491C39.0521 34.8397 39.0521 35.4728 38.6615 35.8634L36.1213 38.4036C36.0349 38.49 35.9367 38.5573 35.8318 38.6054C35.4488 38.8294 34.9487 38.7772 34.6203 38.4487L33.2929 37.1213C32.9024 36.7308 32.9024 36.0976 33.2929 35.7071Z" fill="#218448"/>
<path fill-rule="evenodd" clip-rule="evenodd" d="M36 42C39.3137 42 42 39.3137 42 36C42 32.6863 39.3137 30 36 30C32.6863 30 30 32.6863 30 36C30 39.3137 32.6863 42 36 42ZM36 40.0181C33.7809 40.0181 31.9819 38.2191 31.9819 36C31.9819 33.7809 33.7809 31.9819 36 31.9819C38.2191 31.9819 40.0181 33.7809 40.0181 36C40.0181 38.2191 38.2191 40.0181 36 40.0181Z" fill="#218448"/>
</svg>
