<svg width="32" height="32" viewBox="0 0 32 32" fill="none" xmlns="http://www.w3.org/2000/svg">
<path d="M9.33268 30.6663C8.59935 30.6663 7.97157 30.4052 7.44935 29.883C6.92713 29.3608 6.66602 28.733 6.66602 27.9997V3.99967C6.66602 3.26634 6.92713 2.63856 7.44935 2.11634C7.97157 1.59412 8.59935 1.33301 9.33268 1.33301H22.666C23.3993 1.33301 24.0271 1.59412 24.5494 2.11634C25.0716 2.63856 25.3327 3.26634 25.3327 3.99967V8.13301C25.7327 8.28856 26.0549 8.53301 26.2994 8.86634C26.5438 9.19968 26.666 9.57745 26.666 9.99967V12.6663C26.666 13.0886 26.5438 13.4663 26.2994 13.7997C26.0549 14.133 25.7327 14.3775 25.3327 14.533V27.9997C25.3327 28.733 25.0716 29.3608 24.5494 29.883C24.0271 30.4052 23.3993 30.6663 22.666 30.6663H9.33268ZM9.33268 27.9997H22.666V3.99967H9.33268V27.9997ZM13.3327 26.6663H18.666C19.0438 26.6663 19.3605 26.5386 19.616 26.283C19.8716 26.0275 19.9993 25.7108 19.9993 25.333C19.9993 24.9552 19.8716 24.6386 19.616 24.383C19.3605 24.1275 19.0438 23.9997 18.666 23.9997H13.3327C12.9549 23.9997 12.6382 24.1275 12.3827 24.383C12.1271 24.6386 11.9993 24.9552 11.9993 25.333C11.9993 25.7108 12.1271 26.0275 12.3827 26.283C12.6382 26.5386 12.9549 26.6663 13.3327 26.6663Z" fill="#218448"/>
</svg>
