<svg width="32" height="32" viewBox="0 0 32 32" fill="none" xmlns="http://www.w3.org/2000/svg">
<path d="M5.33398 13.5995C5.33398 10.2662 6.40621 7.61066 8.55065 5.63288C10.6951 3.6551 13.1784 2.66621 16.0007 2.66621H16.334C16.7118 2.66621 17.0284 2.79399 17.284 3.04954C17.5395 3.3051 17.6673 3.62177 17.6673 3.99954C17.6673 4.37732 17.5395 4.69399 17.284 4.94954C17.0284 5.2051 16.7118 5.33288 16.334 5.33288H16.0007C13.7562 5.33288 11.8618 6.1051 10.3173 7.64954C8.77287 9.19399 8.00065 11.1773 8.00065 13.5995C8.00065 15.1773 8.65621 16.9829 9.96732 19.0162C11.2784 21.0495 13.2895 23.3107 16.0007 25.7995C18.7118 23.3107 20.7229 21.0495 22.034 19.0162C23.3451 16.9829 24.0007 15.1773 24.0007 13.5995C24.0007 13.2218 24.1284 12.9051 24.384 12.6495C24.6395 12.394 24.9562 12.2662 25.334 12.2662C25.7118 12.2662 26.0284 12.394 26.284 12.6495C26.5395 12.9051 26.6673 13.2218 26.6673 13.5995C26.6673 15.6884 25.9118 17.9273 24.4007 20.3162C22.8895 22.7051 20.6784 25.1884 17.7673 27.7662C17.5229 27.9884 17.2451 28.1551 16.934 28.2662C16.6229 28.3773 16.3118 28.4329 16.0007 28.4329C15.6895 28.4329 15.3784 28.3773 15.0673 28.2662C14.7562 28.1551 14.4784 27.9884 14.234 27.7662C12.7895 26.4329 11.5118 25.1329 10.4007 23.8662C9.28954 22.5995 8.36176 21.3718 7.61732 20.1829C6.87287 18.994 6.30621 17.8495 5.91732 16.7495C5.52843 15.6495 5.33398 14.5995 5.33398 13.5995ZM17.8673 14.2662L25.2673 6.86621C25.4007 6.73288 25.4673 6.57732 25.4673 6.39954C25.4673 6.22177 25.4007 6.06621 25.2673 5.93288L23.4007 4.06621C23.2673 3.93288 23.1118 3.86621 22.934 3.86621C22.7562 3.86621 22.6007 3.93288 22.4673 4.06621L15.0673 11.4662C14.934 11.5995 14.834 11.7495 14.7673 11.9162C14.7007 12.0829 14.6673 12.2551 14.6673 12.4329V13.6662C14.6673 13.9551 14.7618 14.194 14.9507 14.3829C15.1395 14.5718 15.3784 14.6662 15.6673 14.6662H16.9007C17.0784 14.6662 17.2507 14.6329 17.4173 14.5662C17.584 14.4995 17.734 14.3995 17.8673 14.2662ZM26.2006 4.99954C26.334 5.13288 26.4895 5.19954 26.6673 5.19954C26.8451 5.19954 27.0007 5.13288 27.134 4.99954L27.6006 4.53288C27.8451 4.28843 27.9673 3.97732 27.9673 3.59954C27.9673 3.22177 27.8451 2.91066 27.6006 2.66621L26.6673 1.73288C26.4229 1.48843 26.1118 1.36621 25.734 1.36621C25.3562 1.36621 25.0451 1.48843 24.8006 1.73288L24.334 2.19954C24.2006 2.33288 24.134 2.48843 24.134 2.66621C24.134 2.84399 24.2006 2.99954 24.334 3.13288L26.2006 4.99954Z" fill="#218448"/>
</svg>
