<svg width="32" height="32" viewBox="0 0 32 32" fill="none" xmlns="http://www.w3.org/2000/svg">
<path d="M15.9995 16.0003C15.6217 16.0003 15.305 15.8725 15.0495 15.617C14.7939 15.3614 14.6661 15.0448 14.6661 14.667C14.6661 14.2892 14.7939 13.9725 15.0495 13.717C15.305 13.4614 15.6217 13.3337 15.9995 13.3337C16.3773 13.3337 16.6939 13.4614 16.9495 13.717C17.205 13.9725 17.3328 14.2892 17.3328 14.667C17.3328 15.0448 17.205 15.3614 16.9495 15.617C16.6939 15.8725 16.3773 16.0003 15.9995 16.0003ZM15.9995 10.667C15.6217 10.667 15.305 10.5392 15.0495 10.2837C14.7939 10.0281 14.6661 9.71144 14.6661 9.33366C14.6661 8.95588 14.7939 8.63921 15.0495 8.38366C15.305 8.1281 15.6217 8.00033 15.9995 8.00033C16.3773 8.00033 16.6939 8.1281 16.9495 8.38366C17.205 8.63921 17.3328 8.95588 17.3328 9.33366C17.3328 9.71144 17.205 10.0281 16.9495 10.2837C16.6939 10.5392 16.3773 10.667 15.9995 10.667ZM15.9995 5.33366C15.6217 5.33366 15.305 5.20588 15.0495 4.95033C14.7939 4.69477 14.6661 4.3781 14.6661 4.00033C14.6661 3.62255 14.7939 3.30588 15.0495 3.05033C15.305 2.79477 15.6217 2.66699 15.9995 2.66699C16.3773 2.66699 16.6939 2.79477 16.9495 3.05033C17.205 3.30588 17.3328 3.62255 17.3328 4.00033C17.3328 4.3781 17.205 4.69477 16.9495 4.95033C16.6939 5.20588 16.3773 5.33366 15.9995 5.33366ZM19.9995 18.667C19.6217 18.667 19.305 18.5392 19.0495 18.2837C18.7939 18.0281 18.6661 17.7114 18.6661 17.3337C18.6661 16.9559 18.7939 16.6392 19.0495 16.3837C19.305 16.1281 19.6217 16.0003 19.9995 16.0003C20.3773 16.0003 20.6939 16.1281 20.9495 16.3837C21.205 16.6392 21.3328 16.9559 21.3328 17.3337C21.3328 17.7114 21.205 18.0281 20.9495 18.2837C20.6939 18.5392 20.3773 18.667 19.9995 18.667ZM23.7661 14.867C23.3884 14.867 23.0717 14.7392 22.8161 14.4837C22.5606 14.2281 22.4328 13.9114 22.4328 13.5337C22.4328 13.1559 22.5606 12.8392 22.8161 12.5837C23.0717 12.3281 23.3884 12.2003 23.7661 12.2003C24.1439 12.2003 24.4606 12.3281 24.7161 12.5837C24.9717 12.8392 25.0995 13.1559 25.0995 13.5337C25.0995 13.9114 24.9717 14.2281 24.7161 14.4837C24.4606 14.7392 24.1439 14.867 23.7661 14.867ZM27.5328 11.1337C27.155 11.1337 26.8384 11.0059 26.5828 10.7503C26.3273 10.4948 26.1995 10.1781 26.1995 9.80032C26.1995 9.42255 26.3273 9.10588 26.5828 8.85033C26.8384 8.59477 27.155 8.46699 27.5328 8.46699C27.9106 8.46699 28.2273 8.59477 28.4828 8.85033C28.7384 9.10588 28.8661 9.42255 28.8661 9.80032C28.8661 10.1781 28.7384 10.4948 28.4828 10.7503C28.2273 11.0059 27.9106 11.1337 27.5328 11.1337ZM11.9995 18.667C11.6217 18.667 11.305 18.5392 11.0495 18.2837C10.7939 18.0281 10.6661 17.7114 10.6661 17.3337C10.6661 16.9559 10.7939 16.6392 11.0495 16.3837C11.305 16.1281 11.6217 16.0003 11.9995 16.0003C12.3773 16.0003 12.6939 16.1281 12.9495 16.3837C13.205 16.6392 13.3328 16.9559 13.3328 17.3337C13.3328 17.7114 13.205 18.0281 12.9495 18.2837C12.6939 18.5392 12.3773 18.667 11.9995 18.667ZM8.23281 14.867C7.85503 14.867 7.53837 14.7392 7.28281 14.4837C7.02726 14.2281 6.89948 13.9114 6.89948 13.5337C6.89948 13.1559 7.02726 12.8392 7.28281 12.5837C7.53837 12.3281 7.85503 12.2003 8.23281 12.2003C8.61059 12.2003 8.92726 12.3281 9.18281 12.5837C9.43837 12.8392 9.56615 13.1559 9.56615 13.5337C9.56615 13.9114 9.43837 14.2281 9.18281 14.4837C8.92726 14.7392 8.61059 14.867 8.23281 14.867ZM4.46615 11.1337C4.08837 11.1337 3.7717 11.0059 3.51615 10.7503C3.26059 10.4948 3.13281 10.1781 3.13281 9.80032C3.13281 9.42255 3.26059 9.10588 3.51615 8.85033C3.7717 8.59477 4.08837 8.46699 4.46615 8.46699C4.84392 8.46699 5.16059 8.59477 5.41615 8.85033C5.6717 9.10588 5.79948 9.42255 5.79948 9.80032C5.79948 10.1781 5.6717 10.4948 5.41615 10.7503C5.16059 11.0059 4.84392 11.1337 4.46615 11.1337ZM14.6661 29.3337V24.0003H9.33281V21.3337H22.6661V24.0003H17.3328V29.3337H14.6661Z" fill="#218448"/>
</svg>
