<svg width="32" height="32" viewBox="0 0 32 32" fill="none" xmlns="http://www.w3.org/2000/svg">
<path d="M5.33268 27.9999C4.59935 27.9999 3.97157 27.7388 3.44935 27.2166C2.92713 26.6944 2.66602 26.0666 2.66602 25.3333V4.79993C2.66602 4.64438 2.73268 4.53882 2.86602 4.48327C2.99935 4.42771 3.12157 4.45549 3.23268 4.5666L4.89935 6.23327L6.63268 4.4666C6.76602 4.33327 6.92157 4.2666 7.09935 4.2666C7.27713 4.2666 7.43268 4.33327 7.56602 4.4666L9.33268 6.23327L11.0993 4.4666C11.2327 4.33327 11.3882 4.2666 11.566 4.2666C11.7438 4.2666 11.8993 4.33327 12.0327 4.4666L13.766 6.23327L15.5327 4.4666C15.666 4.33327 15.8216 4.2666 15.9993 4.2666C16.1771 4.2666 16.3327 4.33327 16.466 4.4666L18.2327 6.23327L19.966 4.4666C20.0993 4.33327 20.2549 4.2666 20.4327 4.2666C20.6105 4.2666 20.766 4.33327 20.8993 4.4666L22.666 6.23327L24.4327 4.4666C24.566 4.33327 24.7216 4.2666 24.8993 4.2666C25.0771 4.2666 25.2327 4.33327 25.366 4.4666L27.0993 6.23327L28.766 4.5666C28.8771 4.45549 28.9993 4.42771 29.1327 4.48327C29.266 4.53882 29.3327 4.64438 29.3327 4.79993V25.3333C29.3327 26.0666 29.0716 26.6944 28.5493 27.2166C28.0271 27.7388 27.3993 27.9999 26.666 27.9999H5.33268ZM5.33268 25.3333H14.666V17.3333H5.33268V25.3333ZM17.3327 25.3333H26.666V22.6666H17.3327V25.3333ZM17.3327 19.9999H26.666V17.3333H17.3327V19.9999ZM5.33268 14.6666H26.666V10.6666H5.33268V14.6666Z" fill="#218448"/>
</svg>
