<svg width="40" height="40" viewBox="0 0 40 40" fill="none" xmlns="http://www.w3.org/2000/svg">
<path d="M20.0007 22.333L24.834 27.1663C25.1395 27.4719 25.5284 27.6247 26.0007 27.6247C26.4729 27.6247 26.8618 27.4719 27.1673 27.1663C27.4729 26.8608 27.6257 26.4719 27.6257 25.9997C27.6257 25.5275 27.4729 25.1386 27.1673 24.833L22.334 19.9997L27.1673 15.1663C27.4729 14.8608 27.6257 14.4719 27.6257 13.9997C27.6257 13.5275 27.4729 13.1386 27.1673 12.833C26.8618 12.5275 26.4729 12.3747 26.0007 12.3747C25.5284 12.3747 25.1395 12.5275 24.834 12.833L20.0007 17.6663L15.1673 12.833C14.8618 12.5275 14.4729 12.3747 14.0007 12.3747C13.5284 12.3747 13.1395 12.5275 12.834 12.833C12.5284 13.1386 12.3757 13.5275 12.3757 13.9997C12.3757 14.4719 12.5284 14.8608 12.834 15.1663L17.6673 19.9997L12.834 24.833C12.5284 25.1386 12.3757 25.5275 12.3757 25.9997C12.3757 26.4719 12.5284 26.8608 12.834 27.1663C13.1395 27.4719 13.5284 27.6247 14.0007 27.6247C14.4729 27.6247 14.8618 27.4719 15.1673 27.1663L20.0007 22.333ZM20.0007 36.6663C17.6951 36.6663 15.5284 36.2288 13.5007 35.3538C11.4729 34.4788 9.70898 33.2913 8.20898 31.7913C6.70898 30.2913 5.52148 28.5275 4.64648 26.4997C3.77148 24.4719 3.33398 22.3052 3.33398 19.9997C3.33398 17.6941 3.77148 15.5275 4.64648 13.4997C5.52148 11.4719 6.70898 9.70801 8.20898 8.20801C9.70898 6.70801 11.4729 5.52051 13.5007 4.64551C15.5284 3.77051 17.6951 3.33301 20.0007 3.33301C22.3062 3.33301 24.4729 3.77051 26.5007 4.64551C28.5284 5.52051 30.2923 6.70801 31.7923 8.20801C33.2923 9.70801 34.4798 11.4719 35.3548 13.4997C36.2298 15.5275 36.6673 17.6941 36.6673 19.9997C36.6673 22.3052 36.2298 24.4719 35.3548 26.4997C34.4798 28.5275 33.2923 30.2913 31.7923 31.7913C30.2923 33.2913 28.5284 34.4788 26.5007 35.3538C24.4729 36.2288 22.3062 36.6663 20.0007 36.6663ZM20.0007 33.333C23.7229 33.333 26.8757 32.0413 29.459 29.458C32.0423 26.8747 33.334 23.7219 33.334 19.9997C33.334 16.2775 32.0423 13.1247 29.459 10.5413C26.8757 7.95801 23.7229 6.66634 20.0007 6.66634C16.2784 6.66634 13.1257 7.95801 10.5423 10.5413C7.95898 13.1247 6.66732 16.2775 6.66732 19.9997C6.66732 23.7219 7.95898 26.8747 10.5423 29.458C13.1257 32.0413 16.2784 33.333 20.0007 33.333Z" fill="#EC6B6B"/>
</svg>
