<svg width="50" height="50" viewBox="0 0 50 50" fill="none" xmlns="http://www.w3.org/2000/svg">
<rect width="50" height="50" rx="25" fill="#218448" fill-opacity="0.2"/>
<path d="M30 35C28.6167 35 27.4375 34.5125 26.4625 33.5375C25.4875 32.5625 25 31.3833 25 30C25 28.6167 25.4875 27.4375 26.4625 26.4625C27.4375 25.4875 28.6167 25 30 25C31.3833 25 32.5625 25.4875 33.5375 26.4625C34.5125 27.4375 35 28.6167 35 30C35 31.3833 34.5125 32.5625 33.5375 33.5375C32.5625 34.5125 31.3833 35 30 35ZM31.675 32.375L32.375 31.675L30.5 29.8V27H29.5V30.2L31.675 32.375ZM18 34C17.45 34 16.9792 33.8042 16.5875 33.4125C16.1958 33.0208 16 32.55 16 32V18C16 17.45 16.1958 16.9792 16.5875 16.5875C16.9792 16.1958 17.45 16 18 16H22.175C22.3583 15.4167 22.7167 14.9375 23.25 14.5625C23.7833 14.1875 24.3667 14 25 14C25.6667 14 26.2625 14.1875 26.7875 14.5625C27.3125 14.9375 27.6667 15.4167 27.85 16H32C32.55 16 33.0208 16.1958 33.4125 16.5875C33.8042 16.9792 34 17.45 34 18V24.25C33.7 24.0333 33.3833 23.85 33.05 23.7C32.7167 23.55 32.3667 23.4167 32 23.3V18H30V21H20V18H18V32H23.3C23.4167 32.3667 23.55 32.7167 23.7 33.05C23.85 33.3833 24.0333 33.7 24.25 34H18ZM25 18C25.2833 18 25.5208 17.9042 25.7125 17.7125C25.9042 17.5208 26 17.2833 26 17C26 16.7167 25.9042 16.4792 25.7125 16.2875C25.5208 16.0958 25.2833 16 25 16C24.7167 16 24.4792 16.0958 24.2875 16.2875C24.0958 16.4792 24 16.7167 24 17C24 17.2833 24.0958 17.5208 24.2875 17.7125C24.4792 17.9042 24.7167 18 25 18Z" fill="#218448"/>
</svg>
