<svg width="50" height="50" viewBox="0 0 50 50" fill="none" xmlns="http://www.w3.org/2000/svg">
<rect width="50" height="50" rx="25" fill="#218448" fill-opacity="0.2"/>
<path d="M16 30V20C16 19.45 16.1958 18.9792 16.5875 18.5875C16.9792 18.1958 17.45 18 18 18H32C32.55 18 33.0208 18.1958 33.4125 18.5875C33.8042 18.9792 34 19.45 34 20V30C34 30.55 33.8042 31.0208 33.4125 31.4125C33.0208 31.8042 32.55 32 32 32H18C17.45 32 16.9792 31.8042 16.5875 31.4125C16.1958 31.0208 16 30.55 16 30ZM23.325 24H32V20H23.325V24ZM28.675 30H32V26H28.675V30ZM23.325 30H26.675V26H23.325V30ZM18 30H21.325V20H18V30Z" fill="#218448"/>
</svg>
