<svg width="40" height="40" viewBox="0 0 40 40" fill="none" xmlns="http://www.w3.org/2000/svg">
<path d="M17.6673 22.9997L14.084 19.4163C13.7784 19.1108 13.3895 18.958 12.9173 18.958C12.4451 18.958 12.0562 19.1108 11.7507 19.4163C11.4451 19.7219 11.2923 20.1108 11.2923 20.583C11.2923 21.0552 11.4451 21.4441 11.7507 21.7497L16.5007 26.4997C16.834 26.833 17.2229 26.9997 17.6673 26.9997C18.1118 26.9997 18.5007 26.833 18.834 26.4997L28.2507 17.083C28.5562 16.7775 28.709 16.3886 28.709 15.9163C28.709 15.4441 28.5562 15.0552 28.2507 14.7497C27.9451 14.4441 27.5562 14.2913 27.084 14.2913C26.6118 14.2913 26.2229 14.4441 25.9173 14.7497L17.6673 22.9997ZM20.0007 36.6663C17.6951 36.6663 15.5284 36.2288 13.5007 35.3538C11.4729 34.4788 9.70898 33.2913 8.20898 31.7913C6.70898 30.2913 5.52148 28.5275 4.64648 26.4997C3.77148 24.4719 3.33398 22.3052 3.33398 19.9997C3.33398 17.6941 3.77148 15.5275 4.64648 13.4997C5.52148 11.4719 6.70898 9.70801 8.20898 8.20801C9.70898 6.70801 11.4729 5.52051 13.5007 4.64551C15.5284 3.77051 17.6951 3.33301 20.0007 3.33301C22.3062 3.33301 24.4729 3.77051 26.5007 4.64551C28.5284 5.52051 30.2923 6.70801 31.7923 8.20801C33.2923 9.70801 34.4798 11.4719 35.3548 13.4997C36.2298 15.5275 36.6673 17.6941 36.6673 19.9997C36.6673 22.3052 36.2298 24.4719 35.3548 26.4997C34.4798 28.5275 33.2923 30.2913 31.7923 31.7913C30.2923 33.2913 28.5284 34.4788 26.5007 35.3538C24.4729 36.2288 22.3062 36.6663 20.0007 36.6663ZM20.0007 33.333C23.7229 33.333 26.8757 32.0413 29.459 29.458C32.0423 26.8747 33.334 23.7219 33.334 19.9997C33.334 16.2775 32.0423 13.1247 29.459 10.5413C26.8757 7.95801 23.7229 6.66634 20.0007 6.66634C16.2784 6.66634 13.1257 7.95801 10.5423 10.5413C7.95898 13.1247 6.66732 16.2775 6.66732 19.9997C6.66732 23.7219 7.95898 26.8747 10.5423 29.458C13.1257 32.0413 16.2784 33.333 20.0007 33.333Z" fill="#04471E"/>
</svg>
