<svg width="32" height="32" viewBox="0 0 32 32" fill="none" xmlns="http://www.w3.org/2000/svg">
<path d="M30.6673 15.9997C30.6673 16.4723 30.6449 16.9398 30.6012 17.401C29.8457 16.6451 28.9612 16.0183 27.9834 15.5563C27.7502 9.13937 22.4746 4.00878 16.0006 4.00878C9.37826 4.00878 4.00976 9.37729 4.00976 15.9997C4.00976 22.4737 9.14034 27.7493 15.5573 27.9825C16.0193 28.9602 16.6461 29.8447 17.402 30.6002C16.9408 30.6439 16.4733 30.6663 16.0006 30.6663C7.90048 30.6663 1.33398 24.0998 1.33398 15.9997C1.33398 7.8995 7.90048 1.33301 16.0006 1.33301C24.1008 1.33301 30.6673 7.8995 30.6673 15.9997Z" fill="#218448"/>
<path d="M17.3327 15.8419L18.4561 16.4906C17.7123 17.0406 17.0529 17.6986 16.5015 18.4413L15.3559 17.7798C15.1243 17.6461 14.948 17.4534 14.8349 17.2317C14.666 16.9702 14.666 16.6226 14.666 16.6226V8.00033C14.666 7.26394 15.2629 6.66699 15.9993 6.66699C16.7357 6.66699 17.3327 7.26395 17.3327 8.00033V15.8419Z" fill="#218448"/>
<path d="M20.3905 23.6098C20.9112 23.0892 21.7554 23.0892 22.2761 23.6098L23.1309 24.4646L25.663 21.9325C26.1838 21.4118 27.028 21.4118 27.5486 21.9325C28.0694 22.4533 28.0694 23.2974 27.5486 23.8182L24.1617 27.2052C24.0465 27.3204 23.9156 27.4101 23.7757 27.4742C23.265 27.7729 22.5982 27.7033 22.1604 27.2653L20.3905 25.4954C19.8698 24.9748 19.8698 24.1305 20.3905 23.6098Z" fill="#218448"/>
<path fill-rule="evenodd" clip-rule="evenodd" d="M24 32C28.4183 32 32 28.4183 32 24C32 19.5817 28.4183 16 24 16C19.5817 16 16 19.5817 16 24C16 28.4183 19.5817 32 24 32ZM24 29.3575C21.0412 29.3575 18.6425 26.9588 18.6425 24C18.6425 21.0412 21.0412 18.6425 24 18.6425C26.9588 18.6425 29.3575 21.0412 29.3575 24C29.3575 26.9588 26.9588 29.3575 24 29.3575Z" fill="#218448"/>
</svg>
