<svg width="32" height="32" viewBox="0 0 32 32" fill="none" xmlns="http://www.w3.org/2000/svg">
<path d="M14.066 24.2668L20.966 16.0001H15.6326L16.5993 8.43345L10.4326 17.3335H15.066L14.066 24.2668ZM11.9993 20.0001H7.86597C7.33264 20.0001 6.9382 19.7612 6.68264 19.2835C6.42709 18.8057 6.45486 18.3446 6.76597 17.9001L16.7326 3.56678C16.9549 3.25567 17.2438 3.039 17.5993 2.91678C17.9549 2.79456 18.3215 2.80012 18.6993 2.93345C19.0771 3.06678 19.3549 3.30012 19.5326 3.63345C19.7104 3.96678 19.7771 4.32234 19.7326 4.70012L18.666 13.3335H23.8326C24.4104 13.3335 24.816 13.589 25.0493 14.1001C25.2826 14.6112 25.2104 15.089 24.8326 15.5335L13.866 28.6668C13.6215 28.9557 13.3215 29.1446 12.966 29.2334C12.6104 29.3223 12.266 29.289 11.9326 29.1335C11.5993 28.9779 11.3382 28.739 11.1493 28.4168C10.9604 28.0946 10.8882 27.7446 10.9326 27.3668L11.9993 20.0001Z" fill="#218448"/>
</svg>
