<svg width="32" height="32" viewBox="0 0 32 32" fill="none" xmlns="http://www.w3.org/2000/svg">
<path d="M4 22.668V9.33464C4 8.6013 4.26111 7.97352 4.78333 7.4513C5.30556 6.92908 5.93333 6.66797 6.66667 6.66797H25.3333C26.0667 6.66797 26.6944 6.92908 27.2167 7.4513C27.7389 7.97352 28 8.6013 28 9.33464V22.668C28 23.4013 27.7389 24.0291 27.2167 24.5513C26.6944 25.0735 26.0667 25.3346 25.3333 25.3346H6.66667C5.93333 25.3346 5.30556 25.0735 4.78333 24.5513C4.26111 24.0291 4 23.4013 4 22.668ZM13.7667 14.668H25.3333V9.33464H13.7667V14.668ZM20.9 22.668H25.3333V17.3346H20.9V22.668ZM13.7667 22.668H18.2333V17.3346H13.7667V22.668ZM6.66667 22.668H11.1V9.33464H6.66667V22.668Z" fill="#218448"/>
</svg>
