<svg width="60" height="60" viewBox="0 0 60 60" fill="none" xmlns="http://www.w3.org/2000/svg">
<rect width="60" height="60" rx="30" fill="#218448" fill-opacity="0.2"/>
<path d="M20.0499 29C20.2999 26.4667 21.3666 24.3333 23.2499 22.6C25.1332 20.8667 27.3832 20 29.9999 20C31.3832 20 32.6791 20.2625 33.8874 20.7875C35.0957 21.3125 36.1541 22.0292 37.0624 22.9375C37.9707 23.8458 38.6874 24.9042 39.2124 26.1125C39.7374 27.3208 39.9999 28.6167 39.9999 30C39.9999 31.3667 39.7374 32.6583 39.2124 33.875C38.6874 35.0917 37.9707 36.1542 37.0624 37.0625C36.1541 37.9708 35.0957 38.6875 33.8874 39.2125C32.6791 39.7375 31.3832 40 29.9999 40C29.1166 40 28.2582 39.8917 27.4249 39.675C26.5916 39.4583 25.7999 39.1333 25.0499 38.7C24.7499 38.5333 24.5832 38.2917 24.5499 37.975C24.5166 37.6583 24.6332 37.3667 24.8999 37.1C25.0499 36.95 25.2416 36.8583 25.4749 36.825C25.7082 36.7917 25.9166 36.8333 26.0999 36.95C26.7166 37.2833 27.3499 37.5417 27.9999 37.725C28.6499 37.9083 29.3166 38 29.9999 38C32.2166 38 34.1041 37.2208 35.6624 35.6625C37.2207 34.1042 37.9999 32.2167 37.9999 30C37.9999 27.7833 37.2207 25.8958 35.6624 24.3375C34.1041 22.7792 32.2166 22 29.9999 22C27.9499 22 26.1749 22.6708 24.6749 24.0125C23.1749 25.3542 22.2999 27.0167 22.0499 29C22.0166 29.2833 21.9041 29.5208 21.7124 29.7125C21.5207 29.9042 21.2832 30 20.9999 30C20.7166 30 20.4791 29.9 20.2874 29.7C20.0957 29.5 20.0166 29.2667 20.0499 29ZM33.9999 29.4V31C33.9999 31.2833 34.0957 31.5208 34.2874 31.7125C34.4791 31.9042 34.7166 32 34.9999 32C35.2832 32 35.5207 31.9042 35.7124 31.7125C35.9041 31.5208 35.9999 31.2833 35.9999 31V27C35.9999 26.7167 35.9041 26.4792 35.7124 26.2875C35.5207 26.0958 35.2832 26 34.9999 26H30.9999C30.7166 26 30.4791 26.0958 30.2874 26.2875C30.0957 26.4792 29.9999 26.7167 29.9999 27C29.9999 27.2833 30.0957 27.5208 30.2874 27.7125C30.4791 27.9042 30.7166 28 30.9999 28H32.5999L28.9499 31.65L26.6499 29.725C26.4499 29.5583 26.2207 29.4833 25.9624 29.5C25.7041 29.5167 25.4832 29.6167 25.2999 29.8L21.4749 33.625C21.3082 33.7917 21.2124 33.9875 21.1874 34.2125C21.1624 34.4375 21.2082 34.65 21.3249 34.85C21.4916 35.1333 21.7332 35.2917 22.0499 35.325C22.3666 35.3583 22.6416 35.2583 22.8749 35.025L26.0499 31.85L28.3499 33.775C28.5499 33.9417 28.7791 34.0167 29.0374 34C29.2957 33.9833 29.5166 33.8833 29.6999 33.7L33.9999 29.4Z" fill="#218448"/>
</svg>
