<svg width="60" height="60" viewBox="0 0 60 60" fill="none" xmlns="http://www.w3.org/2000/svg">
<rect width="60" height="60" rx="30" fill="#218448" fill-opacity="0.2"/>
<path d="M23 37.0003H33C33.2833 37.0003 33.5208 37.0961 33.7125 37.2878C33.9042 37.4794 34 37.7169 34 38.0003C34 38.2836 33.9042 38.5211 33.7125 38.7128C33.5208 38.9044 33.2833 39.0003 33 39.0003H23C22.7167 39.0003 22.4792 38.9044 22.2875 38.7128C22.0958 38.5211 22 38.2836 22 38.0003C22 37.7169 22.0958 37.4794 22.2875 37.2878C22.4792 37.0961 22.7167 37.0003 23 37.0003ZM26.225 32.7253L23.4 29.9003C23.0167 29.5169 22.8208 29.0461 22.8125 28.4878C22.8042 27.9294 22.9917 27.4586 23.375 27.0753L24.1 26.3503L29.8 32.0003L29.075 32.7253C28.6917 33.1086 28.2167 33.3003 27.65 33.3003C27.0833 33.3003 26.6083 33.1086 26.225 32.7253ZM34 27.8003L28.35 22.1003L29.075 21.3753C29.4583 20.9919 29.9292 20.8044 30.4875 20.8128C31.0458 20.8211 31.5167 21.0169 31.9 21.4003L34.725 24.2253C35.1083 24.6086 35.3 25.0836 35.3 25.6503C35.3 26.2169 35.1083 26.6919 34.725 27.0753L34 27.8003ZM37.9 37.3003L25.55 24.9503L26.95 23.5503L39.3 35.9003C39.4833 36.0836 39.575 36.3169 39.575 36.6003C39.575 36.8836 39.4833 37.1169 39.3 37.3003C39.1167 37.4836 38.8833 37.5753 38.6 37.5753C38.3167 37.5753 38.0833 37.4836 37.9 37.3003Z" fill="#218448"/>
</svg>
