<svg width="32" height="32" viewBox="0 0 32 32" fill="none" xmlns="http://www.w3.org/2000/svg">
<path d="M13.7327 26.4003C14.7327 24.3781 16.066 23.0281 17.7327 22.3503C19.3993 21.6725 20.8216 21.3337 21.9993 21.3337C22.5105 21.3337 23.0105 21.3781 23.4993 21.467C23.9882 21.5559 24.466 21.667 24.9327 21.8003C25.466 20.9559 25.8882 20.0448 26.1993 19.067C26.5105 18.0892 26.666 17.067 26.666 16.0003C26.666 13.0225 25.6327 10.5003 23.566 8.43366C21.4993 6.36699 18.9771 5.33366 15.9993 5.33366C13.0216 5.33366 10.4993 6.36699 8.43268 8.43366C6.36602 10.5003 5.33268 13.0225 5.33268 16.0003C5.33268 17.0003 5.46046 17.9559 5.71602 18.867C5.97157 19.7781 6.3549 20.6225 6.86602 21.4003C7.77713 20.9559 8.72157 20.6114 9.69935 20.367C10.6771 20.1225 11.666 20.0003 12.666 20.0003C13.3771 20.0003 14.0605 20.0614 14.716 20.1837C15.3716 20.3059 16.0216 20.467 16.666 20.667C16.1549 20.9337 15.6716 21.2448 15.216 21.6003C14.7605 21.9559 14.3327 22.3337 13.9327 22.7337C13.666 22.6892 13.4382 22.667 13.2493 22.667H12.666C11.9549 22.667 11.2493 22.7448 10.5493 22.9003C9.84935 23.0559 9.17713 23.2892 8.53268 23.6003C9.24379 24.3114 10.0382 24.9059 10.916 25.3837C11.7938 25.8614 12.7327 26.2003 13.7327 26.4003ZM15.9993 29.3337C14.1549 29.3337 12.4216 28.9837 10.7993 28.2837C9.17713 27.5837 7.76602 26.6337 6.56602 25.4337C5.36602 24.2337 4.41602 22.8225 3.71602 21.2003C3.01602 19.5781 2.66602 17.8448 2.66602 16.0003C2.66602 14.1559 3.01602 12.4225 3.71602 10.8003C4.41602 9.1781 5.36602 7.76699 6.56602 6.56699C7.76602 5.36699 9.17713 4.41699 10.7993 3.71699C12.4216 3.01699 14.1549 2.66699 15.9993 2.66699C17.8438 2.66699 19.5771 3.01699 21.1993 3.71699C22.8216 4.41699 24.2327 5.36699 25.4327 6.56699C26.6327 7.76699 27.5827 9.1781 28.2827 10.8003C28.9827 12.4225 29.3327 14.1559 29.3327 16.0003C29.3327 17.8448 28.9827 19.5781 28.2827 21.2003C27.5827 22.8225 26.6327 24.2337 25.4327 25.4337C24.2327 26.6337 22.8216 27.5837 21.1993 28.2837C19.5771 28.9837 17.8438 29.3337 15.9993 29.3337ZM12.666 18.0003C11.3771 18.0003 10.2771 17.5448 9.36602 16.6337C8.4549 15.7225 7.99935 14.6225 7.99935 13.3337C7.99935 12.0448 8.4549 10.9448 9.36602 10.0337C10.2771 9.12255 11.3771 8.66699 12.666 8.66699C13.9549 8.66699 15.0549 9.12255 15.966 10.0337C16.8771 10.9448 17.3327 12.0448 17.3327 13.3337C17.3327 14.6225 16.8771 15.7225 15.966 16.6337C15.0549 17.5448 13.9549 18.0003 12.666 18.0003ZM12.666 15.3337C13.2216 15.3337 13.6938 15.1392 14.0827 14.7503C14.4716 14.3614 14.666 13.8892 14.666 13.3337C14.666 12.7781 14.4716 12.3059 14.0827 11.917C13.6938 11.5281 13.2216 11.3337 12.666 11.3337C12.1105 11.3337 11.6382 11.5281 11.2493 11.917C10.8605 12.3059 10.666 12.7781 10.666 13.3337C10.666 13.8892 10.8605 14.3614 11.2493 14.7503C11.6382 15.1392 12.1105 15.3337 12.666 15.3337ZM21.9993 19.3337C21.066 19.3337 20.2771 19.0114 19.6327 18.367C18.9882 17.7225 18.666 16.9337 18.666 16.0003C18.666 15.067 18.9882 14.2781 19.6327 13.6337C20.2771 12.9892 21.066 12.667 21.9993 12.667C22.9327 12.667 23.7216 12.9892 24.366 13.6337C25.0105 14.2781 25.3327 15.067 25.3327 16.0003C25.3327 16.9337 25.0105 17.7225 24.366 18.367C23.7216 19.0114 22.9327 19.3337 21.9993 19.3337Z" fill="#218448"/>
</svg>
