<svg width="50" height="50" viewBox="0 0 50 50" fill="none" xmlns="http://www.w3.org/2000/svg">
<rect width="50" height="50" rx="25" fill="#218448" fill-opacity="0.2"/>
<path d="M23 22C23 21.6044 23.1173 21.2178 23.3371 20.8889C23.5568 20.56 23.8692 20.3036 24.2346 20.1522C24.6001 20.0009 25.0022 19.9613 25.3902 20.0384C25.7781 20.1156 26.1345 20.3061 26.4142 20.5858C26.6939 20.8655 26.8844 21.2219 26.9616 21.6098C27.0387 21.9978 26.9991 22.3999 26.8478 22.7654C26.6964 23.1308 26.44 23.4432 26.1111 23.6629C25.7822 23.8827 25.3956 24 25 24V25M27.25 32L25.8 33.9333C25.4 34.4667 24.6 34.4667 24.2 33.9333L22.75 32H20C17.7909 32 16 30.2091 16 28V20C16 17.7909 17.7909 16 20 16H30C32.2091 16 34 17.7909 34 20V28C34 30.2091 32.2091 32 30 32H27.25Z" stroke="#218448" stroke-width="1.5" stroke-linecap="round" stroke-linejoin="round"/>
<path d="M25 29C25.5523 29 26 28.5523 26 28C26 27.4477 25.5523 27 25 27C24.4477 27 24 27.4477 24 28C24 28.5523 24.4477 29 25 29Z" fill="#218448"/>
</svg>
