<svg width="50" height="50" viewBox="0 0 50 50" fill="none" xmlns="http://www.w3.org/2000/svg">
<rect width="50" height="50" rx="25" fill="#218448" fill-opacity="0.2"/>
<path d="M14 29.0002V28.4252C14 27.4419 14.475 26.7919 15.425 26.4752C16.375 26.1585 17.2333 26.0002 18 26.0002C18.7667 26.0002 19.625 26.1585 20.575 26.4752C21.525 26.7919 22 27.4419 22 28.4252V29.0002H14ZM18 25.0002C17.45 25.0002 16.9792 24.8044 16.5875 24.4127C16.1958 24.021 16 23.5502 16 23.0002C16 22.4502 16.1958 21.9794 16.5875 21.5877C16.9792 21.196 17.45 21.0002 18 21.0002C18.55 21.0002 19.0208 21.196 19.4125 21.5877C19.8042 21.9794 20 22.4502 20 23.0002C20 23.5502 19.8042 24.021 19.4125 24.4127C19.0208 24.8044 18.55 25.0002 18 25.0002ZM22.675 26.4252C22.475 26.4252 22.3 26.3502 22.15 26.2002C22 26.0502 21.925 25.8752 21.925 25.6752C21.925 25.5752 22 25.4002 22.15 25.1502C22.2833 24.9835 22.375 24.8002 22.425 24.6002C22.475 24.4002 22.5 24.2002 22.5 24.0002C22.5 23.8002 22.475 23.6044 22.425 23.4127C22.375 23.221 22.2833 23.0419 22.15 22.8752C22.0833 22.7919 22.0292 22.7044 21.9875 22.6127C21.9458 22.521 21.925 22.4252 21.925 22.3252C21.925 22.1085 21.9958 21.9294 22.1375 21.7877C22.2792 21.646 22.4583 21.5752 22.675 21.5752C22.8083 21.5752 22.9292 21.6127 23.0375 21.6877C23.1458 21.7627 23.2417 21.8502 23.325 21.9502C23.5417 22.2502 23.7083 22.5752 23.825 22.9252C23.9417 23.2752 24 23.6335 24 24.0002C24 24.3669 23.9417 24.721 23.825 25.0627C23.7083 25.4044 23.5417 25.7335 23.325 26.0502C23.2417 26.1502 23.1458 26.2377 23.0375 26.3127C22.9292 26.3877 22.8083 26.4252 22.675 26.4252ZM24.8 28.5752C24.5833 28.5752 24.4 28.5044 24.25 28.3627C24.1 28.221 24.025 28.0419 24.025 27.8252C24.025 27.7252 24.0458 27.6294 24.0875 27.5377C24.1292 27.446 24.1833 27.3585 24.25 27.2752C24.6667 26.8085 24.9792 26.2919 25.1875 25.7252C25.3958 25.1585 25.5 24.5835 25.5 24.0002C25.5 23.4169 25.3958 22.846 25.1875 22.2877C24.9792 21.7294 24.6667 21.2169 24.25 20.7502C24.1833 20.6669 24.1292 20.5835 24.0875 20.5002C24.0458 20.4169 24.025 20.3252 24.025 20.2252C24.025 20.0085 24.0958 19.8252 24.2375 19.6752C24.3792 19.5252 24.5583 19.4502 24.775 19.4502C24.8917 19.4502 25 19.4752 25.1 19.5252C25.2 19.5752 25.2917 19.6419 25.375 19.7252C25.925 20.3419 26.3333 21.0169 26.6 21.7502C26.8667 22.4835 27 23.2335 27 24.0002C27 24.7669 26.8625 25.521 26.5875 26.2627C26.3125 27.0044 25.9083 27.6835 25.375 28.3002C25.2917 28.3835 25.2042 28.4502 25.1125 28.5002C25.0208 28.5502 24.9167 28.5752 24.8 28.5752ZM28 29.0002V28.4252C28 27.4419 28.475 26.7919 29.425 26.4752C30.375 26.1585 31.2333 26.0002 32 26.0002C32.7667 26.0002 33.625 26.1585 34.575 26.4752C35.525 26.7919 36 27.4419 36 28.4252V29.0002H28ZM32 25.0002C31.45 25.0002 30.9792 24.8044 30.5875 24.4127C30.1958 24.021 30 23.5502 30 23.0002C30 22.4502 30.1958 21.9794 30.5875 21.5877C30.9792 21.196 31.45 21.0002 32 21.0002C32.55 21.0002 33.0208 21.196 33.4125 21.5877C33.8042 21.9794 34 22.4502 34 23.0002C34 23.5502 33.8042 24.021 33.4125 24.4127C33.0208 24.8044 32.55 25.0002 32 25.0002Z" fill="#218448"/>
</svg>
