<svg width="50" height="50" viewBox="0 0 50 50" fill="none" xmlns="http://www.w3.org/2000/svg">
<rect width="50" height="50" rx="25" fill="#218448" fill-opacity="0.2"/>
<g clip-path="url(#clip0_963_1690)">
<path d="M25.7473 13.7469V13H24.2535V13.7469H13.7969V15.6141H14.9172V27.3147C14.9172 28.4839 15.865 29.4318 17.0343 29.4318H32.9665C34.1357 29.4318 35.0835 28.4839 35.0835 27.3147V15.6141H36.2039V13.7469H25.7473ZM32.9665 27.938H17.0343C16.6908 27.938 16.411 27.6583 16.411 27.3147V15.6141H33.5897V27.3147C33.5897 27.6583 33.31 27.938 32.9665 27.938Z" fill="#218448"/>
<path d="M24.2536 30.1787L21.1777 36.9008H22.6715L24.2536 33.4435V36.9008H25.7474V33.4749L27.3302 36.9676L28.8233 37.0001L25.7474 30.1787H24.2536Z" fill="#218448"/>
<path d="M30.0671 18.0156C29.4624 18.0156 28.9723 18.5057 28.9723 19.1108C28.9723 19.3045 29.0267 19.4836 29.1149 19.6414L26.473 22.6958C26.3515 22.6495 26.2213 22.6214 26.0835 22.6214C25.9876 22.6214 25.896 22.6378 25.8074 22.6607L24.7352 21.1119C24.8621 20.9332 24.9383 20.7158 24.9383 20.4798C24.9383 19.8748 24.4481 19.3847 23.8428 19.3847C23.2377 19.3847 22.7476 19.8748 22.7476 20.4798C22.7476 20.6458 22.7869 20.8012 22.8529 20.9419L20.446 23.3489C20.3051 23.2829 20.1498 23.2435 19.9839 23.2435C19.3788 23.2435 18.8887 23.7336 18.8887 24.3387C18.8887 24.9437 19.3788 25.4342 19.9839 25.4342C20.5893 25.4342 21.0794 24.9437 21.0794 24.3387C21.0794 24.1731 21.04 24.0178 20.974 23.877L23.381 21.47C23.5218 21.536 23.6771 21.5754 23.8428 21.5754C23.939 21.5754 24.0306 21.559 24.1195 21.5356L25.1918 23.0841C25.0649 23.2628 24.9883 23.4802 24.9883 23.7165C24.9883 24.3215 25.4784 24.812 26.0835 24.812C26.6889 24.812 27.179 24.3215 27.179 23.7165C27.179 23.5228 27.1247 23.3438 27.0364 23.1858L29.6776 20.1315C29.799 20.1782 29.9296 20.2063 30.0671 20.2063C30.6725 20.2063 31.1627 19.7158 31.1627 19.1107C31.1626 18.5057 30.6725 18.0156 30.0671 18.0156Z" fill="#218448"/>
</g>
<defs>
<clipPath id="clip0_963_1690">
<rect width="24" height="24" fill="white" transform="translate(13 13)"/>
</clipPath>
</defs>
</svg>
