<svg width="60" height="60" viewBox="0 0 60 60" fill="none" xmlns="http://www.w3.org/2000/svg">
<rect width="60" height="60" rx="30" fill="#218448" fill-opacity="0.2"/>
<path d="M29 37V33.9C28.1833 33.7167 27.4542 33.3708 26.8125 32.8625C26.1708 32.3542 25.7 31.7167 25.4 30.95C24.15 30.8 23.1042 30.2542 22.2625 29.3125C21.4208 28.3708 21 27.2667 21 26V25C21 24.45 21.1958 23.9792 21.5875 23.5875C21.9792 23.1958 22.45 23 23 23H25C25 22.45 25.1958 21.9792 25.5875 21.5875C25.9792 21.1958 26.45 21 27 21H33C33.55 21 34.0208 21.1958 34.4125 21.5875C34.8042 21.9792 35 22.45 35 23H37C37.55 23 38.0208 23.1958 38.4125 23.5875C38.8042 23.9792 39 24.45 39 25V26C39 27.2667 38.5792 28.3708 37.7375 29.3125C36.8958 30.2542 35.85 30.8 34.6 30.95C34.3 31.7167 33.8292 32.3542 33.1875 32.8625C32.5458 33.3708 31.8167 33.7167 31 33.9V37H34C34.2833 37 34.5208 37.0958 34.7125 37.2875C34.9042 37.4792 35 37.7167 35 38C35 38.2833 34.9042 38.5208 34.7125 38.7125C34.5208 38.9042 34.2833 39 34 39H26C25.7167 39 25.4792 38.9042 25.2875 38.7125C25.0958 38.5208 25 38.2833 25 38C25 37.7167 25.0958 37.4792 25.2875 37.2875C25.4792 37.0958 25.7167 37 26 37H29ZM25 28.8V25H23V26C23 26.6333 23.1833 27.2042 23.55 27.7125C23.9167 28.2208 24.4 28.5833 25 28.8ZM30 32C30.8333 32 31.5417 31.7083 32.125 31.125C32.7083 30.5417 33 29.8333 33 29V23H27V29C27 29.8333 27.2917 30.5417 27.875 31.125C28.4583 31.7083 29.1667 32 30 32ZM35 28.8C35.6 28.5833 36.0833 28.2208 36.45 27.7125C36.8167 27.2042 37 26.6333 37 26V25H35V28.8Z" fill="#218448"/>
</svg>
