<svg width="60" height="60" viewBox="0 0 60 60" fill="none" xmlns="http://www.w3.org/2000/svg">
<rect width="60" height="60" rx="30" fill="#218448" fill-opacity="0.2"/>
<path d="M37.4959 20.5C36.6219 20.5 35.9107 21.2111 35.9107 22.0852C35.9107 22.2895 35.9499 22.4846 36.0206 22.6641C35.4066 23.3723 35.0073 24.327 34.8236 25.0607C34.5898 25.0068 34.3468 24.9774 34.097 24.9774C33.8471 24.9774 33.6041 25.0068 33.3704 25.0607C33.1867 24.327 32.7874 23.3723 32.1734 22.6641C32.2441 22.4846 32.2833 22.2895 32.2833 22.0852C32.2833 21.2111 31.5721 20.5 30.6981 20.5C29.824 20.5 29.1128 21.2111 29.1128 22.0852C29.1128 22.9593 29.824 23.6705 30.6981 23.6705C30.9393 23.6705 31.1681 23.6161 31.373 23.5192C31.8716 24.142 32.1833 25.0151 32.2865 25.5332C31.6245 25.9824 31.1379 26.6706 30.9499 27.4727C30.1317 27.1313 29.2456 26.9533 28.3453 26.9533C25.1963 26.9533 22.5012 29.1019 21.8895 32.0796C21.6453 32.4645 21.4563 32.897 21.3296 33.3645C21.073 33.7191 20.918 34.1758 20.918 34.6738C20.918 35.1469 21.058 35.5826 21.292 35.9289C21.736 37.7899 23.1565 39.0797 24.7818 39.0797C24.978 39.0797 25.1715 39.0611 25.3612 39.0251C25.7837 39.2426 26.3828 39.5001 27.2505 39.5001H32.5544C34.3521 39.5001 35.6088 39.1152 36.3963 38.3236C37.343 37.372 37.3362 36.0822 37.3318 35.2288C37.3315 35.1708 37.3311 35.1141 37.3311 35.0589L37.3301 28.2106C37.3301 27.0982 36.7653 26.1153 35.9075 25.5333C36.0107 25.0152 36.3224 24.1421 36.8211 23.5194C37.0259 23.6162 37.2547 23.6706 37.496 23.6706C38.3701 23.6706 39.0812 22.9595 39.0812 22.0853C39.0812 21.2112 38.37 20.5 37.4959 20.5ZM30.6981 22.5072C30.4654 22.5072 30.2761 22.3179 30.2761 22.0852C30.2761 21.8525 30.4654 21.6632 30.6981 21.6632C30.9307 21.6632 31.12 21.8525 31.12 22.0852C31.12 22.3179 30.9307 22.5072 30.6981 22.5072ZM22.0812 34.6737C22.0812 34.2069 22.3596 33.7973 22.6768 33.7973C22.994 33.7973 23.2724 34.2069 23.2724 34.6737C23.2724 35.1406 22.994 35.5501 22.6768 35.5501C22.3596 35.5501 22.0812 35.1405 22.0812 34.6737ZM24.7818 37.9162C24.0143 37.9163 23.3082 37.4506 22.8492 36.7034C23.7384 36.6026 24.4356 35.7309 24.4356 34.6737C24.4356 33.6398 23.7686 32.7836 22.9075 32.6522C23.3696 31.9571 24.0534 31.5253 24.7818 31.5253C26.1427 31.5253 27.2498 32.9588 27.2498 34.7208C27.2498 36.4827 26.1426 37.9162 24.7818 37.9162ZM30.2676 37.503C29.7174 38.0562 28.7022 38.3367 27.2504 38.3367C27.1053 38.3367 26.9724 38.3267 26.8486 38.3097C27.0417 38.1489 27.2233 37.9643 27.3907 37.757C28.0499 36.9405 28.413 35.8623 28.413 34.7208C28.413 33.5794 28.05 32.5011 27.3907 31.6846C26.7021 30.8318 25.7756 30.3621 24.7817 30.3621C24.4334 30.3621 24.0935 30.4201 23.7684 30.5323C24.7375 29.0643 26.4399 28.1165 28.3453 28.1165C29.2268 28.1165 30.0906 28.3223 30.8639 28.7134V35.0588C30.8639 35.1159 30.8642 35.1745 30.8645 35.2347C30.8686 36.0126 30.8732 36.8943 30.2676 37.503ZM36.1669 28.2105L36.1679 35.0588C36.1679 35.1159 36.1682 35.1746 36.1685 35.2347C36.1726 36.0127 36.1772 36.8943 35.5716 37.503C35.0214 38.0562 34.0062 38.3367 32.5544 38.3367H31.0791C31.0835 38.3322 31.0879 38.3278 31.0924 38.3234C32.039 37.3718 32.0322 36.0821 32.0278 35.2286C32.0275 35.1706 32.0271 35.1139 32.0271 35.0587V28.2104C32.0271 27.0691 32.9556 26.1406 34.097 26.1406C35.2383 26.1406 36.1669 27.0691 36.1669 28.2105ZM37.4959 22.5072C37.2633 22.5072 37.074 22.3179 37.074 22.0852C37.074 21.8525 37.2632 21.6632 37.4959 21.6632C37.7286 21.6632 37.9179 21.8525 37.9179 22.0852C37.9179 22.3179 37.7286 22.5072 37.4959 22.5072Z" fill="#218448"/>
</svg>
