<svg width="60" height="60" viewBox="0 0 60 60" fill="none" xmlns="http://www.w3.org/2000/svg">
<rect width="60" height="60" rx="30" fill="#218448" fill-opacity="0.2"/>
<path d="M27.5 24V21.55L21.55 27.5H24V29H19V24H20.5V26.45L26.45 20.5H24V19H29V24H27.5ZM32.825 41C32.425 41 32.0417 40.925 31.675 40.775C31.3083 40.625 30.9833 40.4083 30.7 40.125L25.6 35L26.35 34.225C26.6167 33.9583 26.9292 33.7792 27.2875 33.6875C27.6458 33.5958 28 33.6 28.35 33.7L30 34.175V26C30 25.7167 30.0958 25.4792 30.2875 25.2875C30.4792 25.0958 30.7167 25 31 25C31.2833 25 31.5208 25.0958 31.7125 25.2875C31.9042 25.4792 32 25.7167 32 26V36.825L29.575 36.15L32.125 38.7C32.2083 38.7833 32.3125 38.8542 32.4375 38.9125C32.5625 38.9708 32.6917 39 32.825 39H37C37.55 39 38.0208 38.8042 38.4125 38.4125C38.8042 38.0208 39 37.55 39 37V33C39 32.7167 39.0958 32.4792 39.2875 32.2875C39.4792 32.0958 39.7167 32 40 32C40.2833 32 40.5208 32.0958 40.7125 32.2875C40.9042 32.4792 41 32.7167 41 33V37C41 38.1 40.6083 39.0417 39.825 39.825C39.0417 40.6083 38.1 41 37 41H32.825ZM33 34V30C33 29.7167 33.0958 29.4792 33.2875 29.2875C33.4792 29.0958 33.7167 29 34 29C34.2833 29 34.5208 29.0958 34.7125 29.2875C34.9042 29.4792 35 29.7167 35 30V34H33ZM36 34V31C36 30.7167 36.0958 30.4792 36.2875 30.2875C36.4792 30.0958 36.7167 30 37 30C37.2833 30 37.5208 30.0958 37.7125 30.2875C37.9042 30.4792 38 30.7167 38 31V34H36Z" fill="#218448"/>
</svg>
